if (_typeface_js && _typeface_js.loadFace) _typeface_js.loadFace({"glyphs":{"0":{"ha":1138,"x_min":0,"x_max":868,"o":"m 174 0 l 174 174 l 694 174 l 694 0 l 174 0 m 347 521 l 347 694 l 521 694 l 521 521 l 347 521 m 0 174 l 0 1042 l 174 1042 l 174 521 l 347 521 l 347 347 l 174 347 l 174 174 l 0 174 m 694 174 l 694 694 l 521 694 l 521 868 l 694 868 l 694 1042 l 868 1042 l 868 174 l 694 174 m 174 1042 l 174 1215 l 694 1215 l 694 1042 l 174 1042 z "},"1":{"ha":1138,"x_min":174,"x_max":694,"o":"m 174 0 l 174 174 l 347 174 l 347 868 l 174 868 l 174 1042 l 347 1042 l 347 1215 l 521 1215 l 521 174 l 694 174 l 694 0 l 174 0 z "},"2":{"ha":1138,"x_min":0,"x_max":868,"o":"m 0 0 l 0 174 l 174 174 l 174 347 l 347 347 l 347 174 l 868 174 l 868 0 l 0 0 m 347 347 l 347 521 l 521 521 l 521 347 l 347 347 m 521 521 l 521 694 l 694 694 l 694 521 l 521 521 m 0 868 l 0 1042 l 174 1042 l 174 868 l 0 868 m 694 694 l 694 1042 l 868 1042 l 868 694 l 694 694 m 174 1042 l 174 1215 l 694 1215 l 694 1042 l 174 1042 z "},"3":{"ha":1138,"x_min":0,"x_max":868,"o":"m 174 0 l 174 174 l 694 174 l 694 0 l 174 0 m 0 174 l 0 347 l 174 347 l 174 174 l 0 174 m 694 174 l 694 521 l 868 521 l 868 174 l 694 174 m 521 521 l 521 694 l 694 694 l 694 521 l 521 521 m 347 694 l 347 868 l 521 868 l 521 694 l 347 694 m 521 868 l 521 1042 l 0 1042 l 0 1215 l 868 1215 l 868 1042 l 694 1042 l 694 868 l 521 868 z "},"4":{"ha":1138,"x_min":0,"x_max":868,"o":"m 174 694 l 174 868 l 347 868 l 347 694 l 174 694 m 521 0 l 521 347 l 0 347 l 0 694 l 174 694 l 174 521 l 521 521 l 521 868 l 347 868 l 347 1042 l 521 1042 l 521 1215 l 694 1215 l 694 521 l 868 521 l 868 347 l 694 347 l 694 0 l 521 0 z "},"5":{"ha":1138,"x_min":0,"x_max":868,"o":"m 174 0 l 174 174 l 694 174 l 694 0 l 174 0 m 0 174 l 0 347 l 174 347 l 174 174 l 0 174 m 694 174 l 694 694 l 868 694 l 868 174 l 694 174 m 0 694 l 0 1215 l 868 1215 l 868 1042 l 174 1042 l 174 868 l 694 868 l 694 694 l 0 694 z "},"6":{"ha":1138,"x_min":0,"x_max":868,"o":"m 174 0 l 174 174 l 694 174 l 694 0 l 174 0 m 694 174 l 694 521 l 868 521 l 868 174 l 694 174 m 0 174 l 0 868 l 174 868 l 174 694 l 694 694 l 694 521 l 174 521 l 174 174 l 0 174 m 174 868 l 174 1042 l 347 1042 l 347 868 l 174 868 m 347 1042 l 347 1215 l 694 1215 l 694 1042 l 347 1042 z "},"7":{"ha":1138,"x_min":0,"x_max":868,"o":"m 347 0 l 347 694 l 521 694 l 521 0 l 347 0 m 521 694 l 521 868 l 694 868 l 694 694 l 521 694 m 694 868 l 694 1042 l 0 1042 l 0 1215 l 868 1215 l 868 868 l 694 868 z "},"8":{"ha":1138,"x_min":0,"x_max":868,"o":"m 174 0 l 174 174 l 694 174 l 694 0 l 174 0 m 0 174 l 0 521 l 174 521 l 174 174 l 0 174 m 694 174 l 694 521 l 868 521 l 868 174 l 694 174 m 174 521 l 174 694 l 694 694 l 694 521 l 174 521 m 0 694 l 0 1042 l 174 1042 l 174 694 l 0 694 m 694 694 l 694 1042 l 868 1042 l 868 694 l 694 694 m 174 1042 l 174 1215 l 694 1215 l 694 1042 l 174 1042 z "},"9":{"ha":1138,"x_min":0,"x_max":868,"o":"m 174 0 l 174 174 l 521 174 l 521 0 l 174 0 m 521 174 l 521 347 l 694 347 l 694 174 l 521 174 m 0 694 l 0 1042 l 174 1042 l 174 694 l 0 694 m 694 347 l 694 521 l 174 521 l 174 694 l 694 694 l 694 1042 l 868 1042 l 868 347 l 694 347 m 174 1042 l 174 1215 l 694 1215 l 694 1042 l 174 1042 z "}," ":{"ha":1138,"x_min":0,"x_max":0,"o":""},"!":{"ha":1138,"x_min":347,"x_max":521,"o":"m 347 0 l 347 174 l 521 174 l 521 0 l 347 0 m 347 347 l 347 1215 l 521 1215 l 521 347 l 347 347 z "},"\"":{"ha":1138,"x_min":174,"x_max":694,"o":"m 174 694 l 174 1215 l 347 1215 l 347 694 l 174 694 m 521 694 l 521 1215 l 694 1215 l 694 694 l 521 694 z "},"#":{"ha":1138,"x_min":0,"x_max":868,"o":"m 521 521 l 521 694 l 347 694 l 347 521 l 521 521 m 174 0 l 174 347 l 0 347 l 0 521 l 174 521 l 174 694 l 0 694 l 0 868 l 174 868 l 174 1215 l 347 1215 l 347 868 l 521 868 l 521 1215 l 694 1215 l 694 868 l 868 868 l 868 694 l 694 694 l 694 521 l 868 521 l 868 347 l 694 347 l 694 0 l 521 0 l 521 347 l 347 347 l 347 0 l 174 0 z "},"$":{"ha":1138,"x_min":0,"x_max":868,"o":"m 694 347 l 694 521 l 868 521 l 868 347 l 694 347 m 0 694 l 0 868 l 174 868 l 174 694 l 0 694 m 347 0 l 347 174 l 0 174 l 0 347 l 347 347 l 347 521 l 174 521 l 174 694 l 347 694 l 347 868 l 174 868 l 174 1042 l 347 1042 l 347 1215 l 521 1215 l 521 1042 l 868 1042 l 868 868 l 521 868 l 521 694 l 694 694 l 694 521 l 521 521 l 521 347 l 694 347 l 694 174 l 521 174 l 521 0 l 347 0 z "},"%":{"ha":1138,"x_min":0,"x_max":868,"o":"m 0 174 l 0 347 l 174 347 l 174 174 l 0 174 m 521 0 l 521 347 l 868 347 l 868 0 l 521 0 m 174 347 l 174 521 l 347 521 l 347 347 l 174 347 m 347 521 l 347 694 l 521 694 l 521 521 l 347 521 m 521 694 l 521 868 l 694 868 l 694 694 l 521 694 m 694 868 l 694 1042 l 868 1042 l 868 868 l 694 868 m 0 868 l 0 1215 l 347 1215 l 347 868 l 0 868 z "},"&":{"ha":1138,"x_min":0,"x_max":868,"o":"m 174 0 l 174 174 l 521 174 l 521 0 l 174 0 m 694 0 l 694 174 l 868 174 l 868 0 l 694 0 m 521 174 l 521 347 l 694 347 l 694 174 l 521 174 m 0 174 l 0 521 l 174 521 l 174 174 l 0 174 m 347 347 l 347 521 l 521 521 l 521 347 l 347 347 m 694 347 l 694 521 l 868 521 l 868 347 l 694 347 m 174 521 l 174 694 l 347 694 l 347 521 l 174 521 m 347 694 l 347 868 l 521 868 l 521 694 l 347 694 m 0 694 l 0 1042 l 174 1042 l 174 694 l 0 694 m 521 868 l 521 1042 l 694 1042 l 694 868 l 521 868 m 174 1042 l 174 1215 l 521 1215 l 521 1042 l 174 1042 z "},"'":{"ha":1138,"x_min":174,"x_max":521,"o":"m 174 694 l 174 868 l 347 868 l 347 694 l 174 694 m 347 868 l 347 1042 l 174 1042 l 174 1215 l 521 1215 l 521 868 l 347 868 z "},"(":{"ha":1138,"x_min":174,"x_max":694,"o":"m 521 0 l 521 174 l 694 174 l 694 0 l 521 0 m 347 174 l 347 347 l 521 347 l 521 174 l 347 174 m 174 347 l 174 868 l 347 868 l 347 347 l 174 347 m 347 868 l 347 1042 l 521 1042 l 521 868 l 347 868 m 521 1042 l 521 1215 l 694 1215 l 694 1042 l 521 1042 z "},")":{"ha":1138,"x_min":174,"x_max":694,"o":"m 174 0 l 174 174 l 347 174 l 347 0 l 174 0 m 347 174 l 347 347 l 521 347 l 521 174 l 347 174 m 521 347 l 521 868 l 694 868 l 694 347 l 521 347 m 347 868 l 347 1042 l 521 1042 l 521 868 l 347 868 m 174 1042 l 174 1215 l 347 1215 l 347 1042 l 174 1042 z "},"*":{"ha":1138,"x_min":174,"x_max":694,"o":"m 174 521 l 174 694 l 347 694 l 347 521 l 174 521 m 521 521 l 521 694 l 694 694 l 694 521 l 521 521 m 347 694 l 347 868 l 521 868 l 521 694 l 347 694 m 174 868 l 174 1042 l 347 1042 l 347 868 l 174 868 m 521 868 l 521 1042 l 694 1042 l 694 868 l 521 868 z "},"+":{"ha":1138,"x_min":0,"x_max":868,"o":"m 347 174 l 347 521 l 0 521 l 0 694 l 347 694 l 347 1042 l 521 1042 l 521 694 l 868 694 l 868 521 l 521 521 l 521 174 l 347 174 z "},",":{"ha":1138,"x_min":174,"x_max":521,"o":"m 174 0 l 174 174 l 347 174 l 347 0 l 174 0 m 347 174 l 347 347 l 174 347 l 174 521 l 521 521 l 521 174 l 347 174 z "},"-":{"ha":1138,"x_min":0,"x_max":868,"o":"m 0 521 l 0 694 l 868 694 l 868 521 l 0 521 z "},".":{"ha":1138,"x_min":174,"x_max":521,"o":"m 174 0 l 174 347 l 521 347 l 521 0 l 174 0 z "},"/":{"ha":1138,"x_min":0,"x_max":868,"o":"m 0 174 l 0 347 l 174 347 l 174 174 l 0 174 m 174 347 l 174 521 l 347 521 l 347 347 l 174 347 m 347 521 l 347 694 l 521 694 l 521 521 l 347 521 m 521 694 l 521 868 l 694 868 l 694 694 l 521 694 m 694 868 l 694 1042 l 868 1042 l 868 868 l 694 868 z "},":":{"ha":1138,"x_min":174,"x_max":521,"o":"m 174 174 l 174 521 l 521 521 l 521 174 l 174 174 m 174 694 l 174 1042 l 521 1042 l 521 694 l 174 694 z "},";":{"ha":1138,"x_min":174,"x_max":521,"o":"m 174 0 l 174 174 l 347 174 l 347 0 l 174 0 m 347 174 l 347 347 l 174 347 l 174 521 l 521 521 l 521 174 l 347 174 m 174 694 l 174 1042 l 521 1042 l 521 694 l 174 694 z "},"<":{"ha":1138,"x_min":0,"x_max":694,"o":"m 521 0 l 521 174 l 694 174 l 694 0 l 521 0 m 347 174 l 347 347 l 521 347 l 521 174 l 347 174 m 174 347 l 174 521 l 347 521 l 347 347 l 174 347 m 0 521 l 0 694 l 174 694 l 174 521 l 0 521 m 174 694 l 174 868 l 347 868 l 347 694 l 174 694 m 347 868 l 347 1042 l 521 1042 l 521 868 l 347 868 m 521 1042 l 521 1215 l 694 1215 l 694 1042 l 521 1042 z "},"=":{"ha":1138,"x_min":0,"x_max":868,"o":"m 0 347 l 0 521 l 868 521 l 868 347 l 0 347 m 0 694 l 0 868 l 868 868 l 868 694 l 0 694 z "},">":{"ha":1138,"x_min":174,"x_max":868,"o":"m 174 0 l 174 174 l 347 174 l 347 0 l 174 0 m 347 174 l 347 347 l 521 347 l 521 174 l 347 174 m 521 347 l 521 521 l 694 521 l 694 347 l 521 347 m 694 521 l 694 694 l 868 694 l 868 521 l 694 521 m 521 694 l 521 868 l 694 868 l 694 694 l 521 694 m 347 868 l 347 1042 l 521 1042 l 521 868 l 347 868 m 174 1042 l 174 1215 l 347 1215 l 347 1042 l 174 1042 z "},"?":{"ha":1138,"x_min":0,"x_max":868,"o":"m 347 0 l 347 174 l 521 174 l 521 0 l 347 0 m 347 347 l 347 521 l 521 521 l 521 347 l 347 347 m 521 521 l 521 694 l 694 694 l 694 521 l 521 521 m 0 868 l 0 1042 l 174 1042 l 174 868 l 0 868 m 694 694 l 694 1042 l 868 1042 l 868 694 l 694 694 m 174 1042 l 174 1215 l 694 1215 l 694 1042 l 174 1042 z "},"@":{"ha":1138,"x_min":0,"x_max":868,"o":"m 0 174 l 0 521 l 174 521 l 174 174 l 0 174 m 174 0 l 174 174 l 347 174 l 347 521 l 174 521 l 174 694 l 521 694 l 521 174 l 694 174 l 694 0 l 174 0 m 0 868 l 0 1042 l 174 1042 l 174 868 l 0 868 m 694 174 l 694 1042 l 868 1042 l 868 174 l 694 174 m 174 1042 l 174 1215 l 694 1215 l 694 1042 l 174 1042 z "},"A":{"ha":1138,"x_min":0,"x_max":868,"o":"m 0 0 l 0 1042 l 174 1042 l 174 694 l 694 694 l 694 1042 l 868 1042 l 868 0 l 694 0 l 694 521 l 174 521 l 174 0 l 0 0 m 174 1042 l 174 1215 l 694 1215 l 694 1042 l 174 1042 z "},"B":{"ha":1138,"x_min":0,"x_max":868,"o":"m 694 174 l 694 521 l 868 521 l 868 174 l 694 174 m 694 694 l 694 1042 l 868 1042 l 868 694 l 694 694 m 0 0 l 0 1215 l 694 1215 l 694 1042 l 174 1042 l 174 694 l 694 694 l 694 521 l 174 521 l 174 174 l 694 174 l 694 0 l 0 0 z "},"C":{"ha":1138,"x_min":0,"x_max":868,"o":"m 174 0 l 174 174 l 694 174 l 694 0 l 174 0 m 694 174 l 694 347 l 868 347 l 868 174 l 694 174 m 0 174 l 0 1042 l 174 1042 l 174 174 l 0 174 m 694 868 l 694 1042 l 868 1042 l 868 868 l 694 868 m 174 1042 l 174 1215 l 694 1215 l 694 1042 l 174 1042 z "},"D":{"ha":1138,"x_min":0,"x_max":868,"o":"m 521 174 l 521 347 l 694 347 l 694 174 l 521 174 m 694 347 l 694 868 l 868 868 l 868 347 l 694 347 m 521 868 l 521 1042 l 694 1042 l 694 868 l 521 868 m 0 0 l 0 1215 l 521 1215 l 521 1042 l 174 1042 l 174 174 l 521 174 l 521 0 l 0 0 z "},"E":{"ha":1138,"x_min":0,"x_max":868,"o":"m 0 0 l 0 1215 l 868 1215 l 868 1042 l 174 1042 l 174 694 l 694 694 l 694 521 l 174 521 l 174 174 l 868 174 l 868 0 l 0 0 z "},"F":{"ha":1138,"x_min":0,"x_max":868,"o":"m 0 0 l 0 1215 l 868 1215 l 868 1042 l 174 1042 l 174 694 l 694 694 l 694 521 l 174 521 l 174 0 l 0 0 z "},"G":{"ha":1138,"x_min":0,"x_max":868,"o":"m 174 0 l 174 174 l 694 174 l 694 521 l 347 521 l 347 694 l 868 694 l 868 0 l 174 0 m 0 174 l 0 1042 l 174 1042 l 174 174 l 0 174 m 694 868 l 694 1042 l 868 1042 l 868 868 l 694 868 m 174 1042 l 174 1215 l 694 1215 l 694 1042 l 174 1042 z "},"H":{"ha":1138,"x_min":0,"x_max":868,"o":"m 0 0 l 0 1215 l 174 1215 l 174 694 l 694 694 l 694 1215 l 868 1215 l 868 0 l 694 0 l 694 521 l 174 521 l 174 0 l 0 0 z "},"I":{"ha":1138,"x_min":174,"x_max":694,"o":"m 174 0 l 174 174 l 347 174 l 347 1042 l 174 1042 l 174 1215 l 694 1215 l 694 1042 l 521 1042 l 521 174 l 694 174 l 694 0 l 174 0 z "},"J":{"ha":1138,"x_min":0,"x_max":868,"o":"m 174 0 l 174 174 l 521 174 l 521 0 l 174 0 m 0 174 l 0 347 l 174 347 l 174 174 l 0 174 m 521 174 l 521 1042 l 347 1042 l 347 1215 l 868 1215 l 868 1042 l 694 1042 l 694 174 l 521 174 z "},"K":{"ha":1138,"x_min":0,"x_max":868,"o":"m 694 0 l 694 174 l 868 174 l 868 0 l 694 0 m 521 174 l 521 347 l 694 347 l 694 174 l 521 174 m 347 347 l 347 521 l 521 521 l 521 347 l 347 347 m 347 694 l 347 868 l 521 868 l 521 694 l 347 694 m 521 868 l 521 1042 l 694 1042 l 694 868 l 521 868 m 0 0 l 0 1215 l 174 1215 l 174 694 l 347 694 l 347 521 l 174 521 l 174 0 l 0 0 m 694 1042 l 694 1215 l 868 1215 l 868 1042 l 694 1042 z "},"L":{"ha":1138,"x_min":0,"x_max":868,"o":"m 0 0 l 0 1215 l 174 1215 l 174 174 l 868 174 l 868 0 l 0 0 z "},"M":{"ha":1138,"x_min":0,"x_max":868,"o":"m 347 521 l 347 868 l 521 868 l 521 521 l 347 521 m 0 0 l 0 1215 l 174 1215 l 174 1042 l 347 1042 l 347 868 l 174 868 l 174 0 l 0 0 m 694 0 l 694 868 l 521 868 l 521 1042 l 694 1042 l 694 1215 l 868 1215 l 868 0 l 694 0 z "},"N":{"ha":1138,"x_min":0,"x_max":868,"o":"m 347 521 l 347 694 l 521 694 l 521 521 l 347 521 m 0 0 l 0 1215 l 174 1215 l 174 1042 l 347 1042 l 347 694 l 174 694 l 174 0 l 0 0 m 694 0 l 694 347 l 521 347 l 521 521 l 694 521 l 694 1215 l 868 1215 l 868 0 l 694 0 z "},"O":{"ha":1138,"x_min":0,"x_max":868,"o":"m 174 0 l 174 174 l 694 174 l 694 0 l 174 0 m 0 174 l 0 1042 l 174 1042 l 174 174 l 0 174 m 694 174 l 694 1042 l 868 1042 l 868 174 l 694 174 m 174 1042 l 174 1215 l 694 1215 l 694 1042 l 174 1042 z "},"P":{"ha":1138,"x_min":0,"x_max":868,"o":"m 694 694 l 694 1042 l 868 1042 l 868 694 l 694 694 m 0 0 l 0 1215 l 694 1215 l 694 1042 l 174 1042 l 174 694 l 694 694 l 694 521 l 174 521 l 174 0 l 0 0 z "},"Q":{"ha":1138,"x_min":0,"x_max":868,"o":"m 174 0 l 174 174 l 521 174 l 521 0 l 174 0 m 694 0 l 694 174 l 868 174 l 868 0 l 694 0 m 521 174 l 521 347 l 694 347 l 694 174 l 521 174 m 347 347 l 347 521 l 521 521 l 521 347 l 347 347 m 0 174 l 0 1042 l 174 1042 l 174 174 l 0 174 m 694 347 l 694 1042 l 868 1042 l 868 347 l 694 347 m 174 1042 l 174 1215 l 694 1215 l 694 1042 l 174 1042 z "},"R":{"ha":1138,"x_min":0,"x_max":868,"o":"m 694 0 l 694 174 l 868 174 l 868 0 l 694 0 m 521 174 l 521 347 l 694 347 l 694 174 l 521 174 m 694 694 l 694 1042 l 868 1042 l 868 694 l 694 694 m 0 0 l 0 1215 l 694 1215 l 694 1042 l 174 1042 l 174 694 l 694 694 l 694 521 l 521 521 l 521 347 l 347 347 l 347 521 l 174 521 l 174 0 l 0 0 z "},"S":{"ha":1138,"x_min":0,"x_max":868,"o":"m 174 0 l 174 174 l 694 174 l 694 0 l 174 0 m 0 174 l 0 347 l 174 347 l 174 174 l 0 174 m 694 174 l 694 521 l 868 521 l 868 174 l 694 174 m 174 521 l 174 694 l 694 694 l 694 521 l 174 521 m 0 694 l 0 1042 l 174 1042 l 174 694 l 0 694 m 694 868 l 694 1042 l 868 1042 l 868 868 l 694 868 m 174 1042 l 174 1215 l 694 1215 l 694 1042 l 174 1042 z "},"T":{"ha":1138,"x_min":0,"x_max":868,"o":"m 347 0 l 347 1042 l 0 1042 l 0 1215 l 868 1215 l 868 1042 l 521 1042 l 521 0 l 347 0 z "},"U":{"ha":1138,"x_min":0,"x_max":868,"o":"m 174 0 l 174 174 l 694 174 l 694 0 l 174 0 m 0 174 l 0 1215 l 174 1215 l 174 174 l 0 174 m 694 174 l 694 1215 l 868 1215 l 868 174 l 694 174 z "},"V":{"ha":1138,"x_min":0,"x_max":868,"o":"m 347 0 l 347 174 l 521 174 l 521 0 l 347 0 m 174 174 l 174 347 l 347 347 l 347 174 l 174 174 m 521 174 l 521 347 l 694 347 l 694 174 l 521 174 m 0 347 l 0 1215 l 174 1215 l 174 347 l 0 347 m 694 347 l 694 1215 l 868 1215 l 868 347 l 694 347 z "},"W":{"ha":1138,"x_min":0,"x_max":868,"o":"m 174 0 l 174 174 l 347 174 l 347 0 l 174 0 m 521 0 l 521 174 l 694 174 l 694 0 l 521 0 m 347 174 l 347 694 l 521 694 l 521 174 l 347 174 m 0 174 l 0 1215 l 174 1215 l 174 174 l 0 174 m 694 174 l 694 1215 l 868 1215 l 868 174 l 694 174 z "},"X":{"ha":1138,"x_min":0,"x_max":868,"o":"m 0 0 l 0 347 l 174 347 l 174 0 l 0 0 m 694 0 l 694 347 l 868 347 l 868 0 l 694 0 m 174 347 l 174 521 l 347 521 l 347 347 l 174 347 m 521 347 l 521 521 l 694 521 l 694 347 l 521 347 m 347 521 l 347 694 l 521 694 l 521 521 l 347 521 m 174 694 l 174 868 l 347 868 l 347 694 l 174 694 m 521 694 l 521 868 l 694 868 l 694 694 l 521 694 m 0 868 l 0 1215 l 174 1215 l 174 868 l 0 868 m 694 868 l 694 1215 l 868 1215 l 868 868 l 694 868 z "},"Y":{"ha":1138,"x_min":0,"x_max":868,"o":"m 347 0 l 347 521 l 521 521 l 521 0 l 347 0 m 174 521 l 174 694 l 347 694 l 347 521 l 174 521 m 521 521 l 521 694 l 694 694 l 694 521 l 521 521 m 0 694 l 0 1215 l 174 1215 l 174 694 l 0 694 m 694 694 l 694 1215 l 868 1215 l 868 694 l 694 694 z "},"Z":{"ha":1138,"x_min":0,"x_max":868,"o":"m 0 0 l 0 347 l 174 347 l 174 174 l 868 174 l 868 0 l 0 0 m 174 347 l 174 521 l 347 521 l 347 347 l 174 347 m 347 521 l 347 694 l 521 694 l 521 521 l 347 521 m 521 694 l 521 868 l 694 868 l 694 694 l 521 694 m 694 868 l 694 1042 l 0 1042 l 0 1215 l 868 1215 l 868 868 l 694 868 z "},"[":{"ha":1138,"x_min":174,"x_max":694,"o":"m 174 0 l 174 1215 l 694 1215 l 694 1042 l 347 1042 l 347 174 l 694 174 l 694 0 l 174 0 z "},"\\":{"ha":1138,"x_min":0,"x_max":868,"o":"m 694 174 l 694 347 l 868 347 l 868 174 l 694 174 m 521 347 l 521 521 l 694 521 l 694 347 l 521 347 m 347 521 l 347 694 l 521 694 l 521 521 l 347 521 m 174 694 l 174 868 l 347 868 l 347 694 l 174 694 m 0 868 l 0 1042 l 174 1042 l 174 868 l 0 868 z "},"]":{"ha":1138,"x_min":174,"x_max":694,"o":"m 174 0 l 174 174 l 521 174 l 521 1042 l 174 1042 l 174 1215 l 694 1215 l 694 0 l 174 0 z "},"^":{"ha":1138,"x_min":0,"x_max":868,"o":"m 0 694 l 0 868 l 174 868 l 174 694 l 0 694 m 694 694 l 694 868 l 868 868 l 868 694 l 694 694 m 174 868 l 174 1042 l 347 1042 l 347 868 l 174 868 m 521 868 l 521 1042 l 694 1042 l 694 868 l 521 868 m 347 1042 l 347 1215 l 521 1215 l 521 1042 l 347 1042 z "},"_":{"ha":1138,"x_min":0,"x_max":868,"o":"m 0 0 l 0 174 l 868 174 l 868 0 l 0 0 z "},"`":{"ha":1138,"x_min":174,"x_max":694,"o":"m 521 694 l 521 868 l 694 868 l 694 694 l 521 694 m 347 868 l 347 1042 l 174 1042 l 174 1215 l 521 1215 l 521 868 l 347 868 z "},"a":{"ha":1138,"x_min":0,"x_max":868,"o":"m 0 174 l 0 347 l 174 347 l 174 174 l 0 174 m 174 0 l 174 174 l 694 174 l 694 347 l 174 347 l 174 521 l 694 521 l 694 694 l 868 694 l 868 0 l 174 0 m 174 694 l 174 868 l 694 868 l 694 694 l 174 694 z "},"b":{"ha":1138,"x_min":0,"x_max":868,"o":"m 694 174 l 694 694 l 868 694 l 868 174 l 694 174 m 347 694 l 347 868 l 694 868 l 694 694 l 347 694 m 0 0 l 0 1215 l 174 1215 l 174 694 l 347 694 l 347 521 l 174 521 l 174 174 l 694 174 l 694 0 l 0 0 z "},"c":{"ha":1138,"x_min":0,"x_max":868,"o":"m 174 0 l 174 174 l 694 174 l 694 0 l 174 0 m 694 174 l 694 347 l 868 347 l 868 174 l 694 174 m 0 174 l 0 694 l 174 694 l 174 174 l 0 174 m 174 694 l 174 868 l 694 868 l 694 694 l 174 694 z "},"d":{"ha":1138,"x_min":0,"x_max":868,"o":"m 0 174 l 0 694 l 174 694 l 174 174 l 0 174 m 174 694 l 174 868 l 521 868 l 521 694 l 174 694 m 174 0 l 174 174 l 694 174 l 694 521 l 521 521 l 521 694 l 694 694 l 694 1215 l 868 1215 l 868 0 l 174 0 z "},"e":{"ha":1138,"x_min":0,"x_max":868,"o":"m 174 0 l 174 174 l 694 174 l 694 0 l 174 0 m 0 174 l 0 694 l 174 694 l 174 521 l 694 521 l 694 694 l 868 694 l 868 347 l 174 347 l 174 174 l 0 174 m 174 694 l 174 868 l 694 868 l 694 694 l 174 694 z "},"f":{"ha":1138,"x_min":0,"x_max":694,"o":"m 174 0 l 174 694 l 0 694 l 0 868 l 174 868 l 174 1042 l 347 1042 l 347 868 l 521 868 l 521 694 l 347 694 l 347 0 l 174 0 m 347 1042 l 347 1215 l 694 1215 l 694 1042 l 347 1042 z "},"g":{"ha":1138,"x_min":0,"x_max":868,"o":"m 174 0 l 174 174 l 694 174 l 694 0 l 174 0 m 0 521 l 0 694 l 174 694 l 174 521 l 0 521 m 694 174 l 694 347 l 174 347 l 174 521 l 694 521 l 694 694 l 174 694 l 174 868 l 868 868 l 868 174 l 694 174 z "},"h":{"ha":1138,"x_min":0,"x_max":868,"o":"m 694 0 l 694 694 l 868 694 l 868 0 l 694 0 m 347 694 l 347 868 l 694 868 l 694 694 l 347 694 m 0 0 l 0 1215 l 174 1215 l 174 694 l 347 694 l 347 521 l 174 521 l 174 0 l 0 0 z "},"i":{"ha":1138,"x_min":174,"x_max":694,"o":"m 174 0 l 174 174 l 347 174 l 347 694 l 174 694 l 174 868 l 521 868 l 521 174 l 694 174 l 694 0 l 174 0 m 347 1042 l 347 1215 l 521 1215 l 521 1042 l 347 1042 z "},"j":{"ha":1138,"x_min":0,"x_max":694,"o":"m 174 0 l 174 174 l 521 174 l 521 0 l 174 0 m 0 174 l 0 347 l 174 347 l 174 174 l 0 174 m 521 174 l 521 694 l 347 694 l 347 868 l 694 868 l 694 174 l 521 174 m 521 1042 l 521 1215 l 694 1215 l 694 1042 l 521 1042 z "},"k":{"ha":1138,"x_min":0,"x_max":694,"o":"m 521 0 l 521 174 l 694 174 l 694 0 l 521 0 m 347 174 l 347 347 l 521 347 l 521 174 l 347 174 m 347 521 l 347 694 l 521 694 l 521 521 l 347 521 m 521 694 l 521 868 l 694 868 l 694 694 l 521 694 m 0 0 l 0 1215 l 174 1215 l 174 521 l 347 521 l 347 347 l 174 347 l 174 0 l 0 0 z "},"l":{"ha":1138,"x_min":174,"x_max":694,"o":"m 174 0 l 174 174 l 347 174 l 347 1042 l 174 1042 l 174 1215 l 521 1215 l 521 174 l 694 174 l 694 0 l 174 0 z "},"m":{"ha":1138,"x_min":0,"x_max":868,"o":"m 347 0 l 347 694 l 521 694 l 521 0 l 347 0 m 694 0 l 694 694 l 868 694 l 868 0 l 694 0 m 0 0 l 0 868 l 347 868 l 347 694 l 174 694 l 174 0 l 0 0 m 521 694 l 521 868 l 694 868 l 694 694 l 521 694 z "},"n":{"ha":1138,"x_min":0,"x_max":868,"o":"m 694 0 l 694 694 l 868 694 l 868 0 l 694 0 m 0 0 l 0 868 l 174 868 l 174 694 l 347 694 l 347 521 l 174 521 l 174 0 l 0 0 m 347 694 l 347 868 l 694 868 l 694 694 l 347 694 z "},"o":{"ha":1138,"x_min":0,"x_max":868,"o":"m 174 0 l 174 174 l 694 174 l 694 0 l 174 0 m 0 174 l 0 694 l 174 694 l 174 174 l 0 174 m 694 174 l 694 694 l 868 694 l 868 174 l 694 174 m 174 694 l 174 868 l 694 868 l 694 694 l 174 694 z "},"p":{"ha":1138,"x_min":0,"x_max":868,"o":"m 694 521 l 694 694 l 868 694 l 868 521 l 694 521 m 0 0 l 0 868 l 694 868 l 694 694 l 174 694 l 174 521 l 694 521 l 694 347 l 174 347 l 174 0 l 0 0 z "},"q":{"ha":1138,"x_min":0,"x_max":868,"o":"m 0 521 l 0 694 l 174 694 l 174 521 l 0 521 m 694 0 l 694 347 l 174 347 l 174 521 l 694 521 l 694 694 l 174 694 l 174 868 l 868 868 l 868 0 l 694 0 z "},"r":{"ha":1138,"x_min":0,"x_max":868,"o":"m 694 521 l 694 694 l 868 694 l 868 521 l 694 521 m 0 0 l 0 868 l 174 868 l 174 694 l 347 694 l 347 521 l 174 521 l 174 0 l 0 0 m 347 694 l 347 868 l 694 868 l 694 694 l 347 694 z "},"s":{"ha":1138,"x_min":0,"x_max":868,"o":"m 0 0 l 0 174 l 694 174 l 694 0 l 0 0 m 694 174 l 694 347 l 868 347 l 868 174 l 694 174 m 174 347 l 174 521 l 694 521 l 694 347 l 174 347 m 0 521 l 0 694 l 174 694 l 174 521 l 0 521 m 174 694 l 174 868 l 868 868 l 868 694 l 174 694 z "},"t":{"ha":1138,"x_min":0,"x_max":868,"o":"m 347 0 l 347 174 l 694 174 l 694 0 l 347 0 m 694 174 l 694 347 l 868 347 l 868 174 l 694 174 m 174 174 l 174 868 l 0 868 l 0 1042 l 174 1042 l 174 1215 l 347 1215 l 347 1042 l 521 1042 l 521 868 l 347 868 l 347 174 l 174 174 z "},"u":{"ha":1138,"x_min":0,"x_max":868,"o":"m 174 0 l 174 174 l 521 174 l 521 0 l 174 0 m 0 174 l 0 868 l 174 868 l 174 174 l 0 174 m 694 0 l 694 174 l 521 174 l 521 347 l 694 347 l 694 868 l 868 868 l 868 0 l 694 0 z "},"v":{"ha":1138,"x_min":0,"x_max":868,"o":"m 347 0 l 347 174 l 521 174 l 521 0 l 347 0 m 174 174 l 174 521 l 347 521 l 347 174 l 174 174 m 521 174 l 521 521 l 694 521 l 694 174 l 521 174 m 0 521 l 0 868 l 174 868 l 174 521 l 0 521 m 694 521 l 694 868 l 868 868 l 868 521 l 694 521 z "},"w":{"ha":1138,"x_min":0,"x_max":868,"o":"m 174 0 l 174 174 l 347 174 l 347 0 l 174 0 m 521 0 l 521 174 l 694 174 l 694 0 l 521 0 m 347 174 l 347 521 l 521 521 l 521 174 l 347 174 m 0 174 l 0 868 l 174 868 l 174 174 l 0 174 m 694 174 l 694 868 l 868 868 l 868 174 l 694 174 z "},"x":{"ha":1138,"x_min":0,"x_max":868,"o":"m 0 0 l 0 174 l 174 174 l 174 0 l 0 0 m 521 0 l 521 174 l 868 174 l 868 0 l 521 0 m 174 174 l 174 347 l 347 347 l 347 694 l 694 694 l 694 521 l 521 521 l 521 174 l 174 174 m 0 694 l 0 868 l 347 868 l 347 694 l 0 694 m 694 694 l 694 868 l 868 868 l 868 694 l 694 694 z "},"y":{"ha":1138,"x_min":0,"x_max":868,"o":"m 0 0 l 0 174 l 347 174 l 347 0 l 0 0 m 347 174 l 347 521 l 694 521 l 694 347 l 521 347 l 521 174 l 347 174 m 174 521 l 174 694 l 347 694 l 347 521 l 174 521 m 0 694 l 0 868 l 174 868 l 174 694 l 0 694 m 694 521 l 694 868 l 868 868 l 868 521 l 694 521 z "},"z":{"ha":1138,"x_min":0,"x_max":868,"o":"m 0 0 l 0 174 l 174 174 l 174 347 l 347 347 l 347 174 l 868 174 l 868 0 l 0 0 m 347 347 l 347 521 l 521 521 l 521 347 l 347 347 m 521 521 l 521 694 l 0 694 l 0 868 l 868 868 l 868 694 l 694 694 l 694 521 l 521 521 z "},"{":{"ha":1138,"x_min":0,"x_max":521,"o":"m 347 0 l 347 174 l 521 174 l 521 0 l 347 0 m 174 174 l 174 521 l 347 521 l 347 174 l 174 174 m 0 521 l 0 694 l 174 694 l 174 521 l 0 521 m 174 694 l 174 1042 l 347 1042 l 347 694 l 174 694 m 347 1042 l 347 1215 l 521 1215 l 521 1042 l 347 1042 z "},"|":{"ha":1138,"x_min":347,"x_max":521,"o":"m 347 0 l 347 1215 l 521 1215 l 521 0 l 347 0 z "},"}":{"ha":1138,"x_min":347,"x_max":868,"o":"m 347 0 l 347 174 l 521 174 l 521 0 l 347 0 m 521 174 l 521 521 l 694 521 l 694 174 l 521 174 m 694 521 l 694 694 l 868 694 l 868 521 l 694 521 m 521 694 l 521 1042 l 694 1042 l 694 694 l 521 694 m 347 1042 l 347 1215 l 521 1215 l 521 1042 l 347 1042 z "},"~":{"ha":1138,"x_min":0,"x_max":868,"o":"m 521 347 l 521 521 l 694 521 l 694 347 l 521 347 m 0 347 l 0 694 l 174 694 l 174 347 l 0 347 m 347 521 l 347 694 l 521 694 l 521 521 l 347 521 m 174 694 l 174 868 l 347 868 l 347 694 l 174 694 m 694 521 l 694 868 l 868 868 l 868 521 l 694 521 z "},"¡":{"ha":1138,"x_min":347,"x_max":521,"o":"m 347 0 l 347 868 l 521 868 l 521 0 l 347 0 m 347 1042 l 347 1215 l 521 1215 l 521 1042 l 347 1042 z "},"¢":{"ha":1138,"x_min":0,"x_max":868,"o":"m 0 347 l 0 868 l 174 868 l 174 347 l 0 347 m 694 694 l 694 868 l 868 868 l 868 694 l 694 694 m 347 0 l 347 174 l 174 174 l 174 347 l 347 347 l 347 868 l 174 868 l 174 1042 l 347 1042 l 347 1215 l 521 1215 l 521 1042 l 694 1042 l 694 868 l 521 868 l 521 347 l 694 347 l 694 174 l 521 174 l 521 0 l 347 0 z "},"£":{"ha":1138,"x_min":0,"x_max":868,"o":"m 0 0 l 0 174 l 174 174 l 174 521 l 0 521 l 0 694 l 174 694 l 174 1042 l 347 1042 l 347 694 l 521 694 l 521 521 l 347 521 l 347 174 l 868 174 l 868 0 l 0 0 m 694 868 l 694 1042 l 868 1042 l 868 868 l 694 868 m 347 1042 l 347 1215 l 694 1215 l 694 1042 l 347 1042 z "},"¤":{"ha":1138,"x_min":0,"x_max":868,"o":"m 0 174 l 0 347 l 174 347 l 174 174 l 0 174 m 694 174 l 694 347 l 868 347 l 868 174 l 694 174 m 521 521 l 521 694 l 347 694 l 347 521 l 521 521 m 174 347 l 174 868 l 694 868 l 694 347 l 174 347 m 0 868 l 0 1042 l 174 1042 l 174 868 l 0 868 m 694 868 l 694 1042 l 868 1042 l 868 868 l 694 868 z "},"¥":{"ha":1138,"x_min":0,"x_max":868,"o":"m 347 0 l 347 174 l 0 174 l 0 347 l 347 347 l 347 521 l 0 521 l 0 694 l 347 694 l 347 868 l 521 868 l 521 694 l 868 694 l 868 521 l 521 521 l 521 347 l 868 347 l 868 174 l 521 174 l 521 0 l 347 0 m 174 868 l 174 1042 l 347 1042 l 347 868 l 174 868 m 521 868 l 521 1042 l 694 1042 l 694 868 l 521 868 m 0 1042 l 0 1215 l 174 1215 l 174 1042 l 0 1042 m 694 1042 l 694 1215 l 868 1215 l 868 1042 l 694 1042 z "},"¦":{"ha":1138,"x_min":347,"x_max":521,"o":"m 347 0 l 347 521 l 521 521 l 521 0 l 347 0 m 347 694 l 347 1215 l 521 1215 l 521 694 l 347 694 z "},"§":{"ha":1138,"x_min":0,"x_max":868,"o":"m 174 0 l 174 174 l 694 174 l 694 0 l 174 0 m 0 174 l 0 347 l 174 347 l 174 174 l 0 174 m 694 174 l 694 347 l 868 347 l 868 174 l 694 174 m 347 347 l 347 521 l 521 521 l 521 694 l 694 694 l 694 347 l 347 347 m 174 521 l 174 868 l 521 868 l 521 694 l 347 694 l 347 521 l 174 521 m 0 868 l 0 1042 l 174 1042 l 174 868 l 0 868 m 694 868 l 694 1042 l 868 1042 l 868 868 l 694 868 m 174 1042 l 174 1215 l 694 1215 l 694 1042 l 174 1042 z "},"¨":{"ha":1138,"x_min":174,"x_max":694,"o":"m 174 1042 l 174 1215 l 347 1215 l 347 1042 l 174 1042 m 521 1042 l 521 1215 l 694 1215 l 694 1042 l 521 1042 z "},"©":{"ha":1138,"x_min":0,"x_max":868,"o":"m 521 174 l 521 347 l 694 347 l 694 521 l 521 521 l 521 347 l 347 347 l 347 868 l 521 868 l 521 694 l 694 694 l 694 868 l 521 868 l 521 1042 l 347 1042 l 347 868 l 174 868 l 174 347 l 347 347 l 347 174 l 521 174 m 0 0 l 0 1215 l 868 1215 l 868 0 l 0 0 z "},"ª":{"ha":1138,"x_min":0,"x_max":868,"o":"m 0 0 l 0 174 l 868 174 l 868 0 l 0 0 m 0 521 l 0 694 l 174 694 l 174 521 l 0 521 m 174 347 l 174 521 l 694 521 l 694 694 l 174 694 l 174 868 l 694 868 l 694 1042 l 868 1042 l 868 347 l 174 347 m 174 1042 l 174 1215 l 694 1215 l 694 1042 l 174 1042 z "},"«":{"ha":1138,"x_min":0,"x_max":868,"o":"m 347 174 l 347 347 l 521 347 l 521 174 l 347 174 m 694 174 l 694 347 l 868 347 l 868 174 l 694 174 m 174 347 l 174 521 l 347 521 l 347 347 l 174 347 m 521 347 l 521 521 l 694 521 l 694 347 l 521 347 m 0 521 l 0 868 l 174 868 l 174 521 l 0 521 m 347 521 l 347 868 l 521 868 l 521 521 l 347 521 m 174 868 l 174 1042 l 347 1042 l 347 868 l 174 868 m 521 868 l 521 1042 l 694 1042 l 694 868 l 521 868 m 347 1042 l 347 1215 l 521 1215 l 521 1042 l 347 1042 m 694 1042 l 694 1215 l 868 1215 l 868 1042 l 694 1042 z "},"¬":{"ha":1138,"x_min":0,"x_max":868,"o":"m 694 694 l 694 868 l 0 868 l 0 1042 l 868 1042 l 868 694 l 694 694 z "},"­":{"ha":1138,"x_min":174,"x_max":694,"o":"m 174 521 l 174 694 l 694 694 l 694 521 l 174 521 z "},"®":{"ha":1138,"x_min":0,"x_max":868,"o":"m 347 694 l 347 868 l 521 868 l 521 694 l 347 694 m 694 174 l 694 521 l 521 521 l 521 694 l 694 694 l 694 868 l 521 868 l 521 1042 l 174 1042 l 174 174 l 347 174 l 347 521 l 521 521 l 521 174 l 694 174 m 0 0 l 0 1215 l 868 1215 l 868 0 l 0 0 z "},"¯":{"ha":1138,"x_min":0,"x_max":868,"o":"m 0 1042 l 0 1215 l 868 1215 l 868 1042 l 0 1042 z "},"°":{"ha":1138,"x_min":0,"x_max":694,"o":"m 174 521 l 174 694 l 521 694 l 521 521 l 174 521 m 0 694 l 0 1042 l 174 1042 l 174 694 l 0 694 m 521 694 l 521 1042 l 694 1042 l 694 694 l 521 694 m 174 1042 l 174 1215 l 521 1215 l 521 1042 l 174 1042 z "},"±":{"ha":1138,"x_min":0,"x_max":868,"o":"m 0 0 l 0 174 l 868 174 l 868 0 l 0 0 m 347 347 l 347 694 l 0 694 l 0 868 l 347 868 l 347 1215 l 521 1215 l 521 868 l 868 868 l 868 694 l 521 694 l 521 347 l 347 347 z "},"²":{"ha":1138,"x_min":174,"x_max":694,"o":"m 174 347 l 174 868 l 521 868 l 521 1042 l 174 1042 l 174 1215 l 694 1215 l 694 694 l 347 694 l 347 521 l 694 521 l 694 347 l 174 347 z "},"³":{"ha":1138,"x_min":174,"x_max":694,"o":"m 174 347 l 174 521 l 521 521 l 521 694 l 174 694 l 174 868 l 521 868 l 521 1042 l 174 1042 l 174 1215 l 694 1215 l 694 347 l 174 347 z "},"´":{"ha":1138,"x_min":347,"x_max":868,"o":"m 347 694 l 347 868 l 521 868 l 521 694 l 347 694 m 521 868 l 521 1215 l 868 1215 l 868 1042 l 694 1042 l 694 868 l 521 868 z "},"µ":{"ha":1138,"x_min":0,"x_max":868,"o":"m 694 347 l 694 521 l 868 521 l 868 347 l 694 347 m 0 0 l 0 868 l 174 868 l 174 521 l 521 521 l 521 347 l 174 347 l 174 0 l 0 0 m 521 521 l 521 868 l 694 868 l 694 521 l 521 521 z "},"¶":{"ha":1138,"x_min":0,"x_max":868,"o":"m 347 0 l 347 694 l 0 694 l 0 1215 l 868 1215 l 868 0 l 694 0 l 694 1042 l 521 1042 l 521 0 l 347 0 z "},"·":{"ha":1138,"x_min":347,"x_max":521,"o":"m 347 521 l 347 694 l 521 694 l 521 521 l 347 521 z "},"¹":{"ha":1138,"x_min":174,"x_max":694,"o":"m 174 347 l 174 521 l 347 521 l 347 868 l 174 868 l 174 1042 l 347 1042 l 347 1215 l 521 1215 l 521 521 l 694 521 l 694 347 l 174 347 z "},"º":{"ha":1138,"x_min":174,"x_max":694,"o":"m 521 521 l 521 1042 l 347 1042 l 347 521 l 521 521 m 174 347 l 174 1215 l 694 1215 l 694 347 l 174 347 z "},"»":{"ha":1138,"x_min":0,"x_max":868,"o":"m 0 174 l 0 347 l 174 347 l 174 174 l 0 174 m 347 174 l 347 347 l 521 347 l 521 174 l 347 174 m 174 347 l 174 521 l 347 521 l 347 347 l 174 347 m 521 347 l 521 521 l 694 521 l 694 347 l 521 347 m 347 521 l 347 868 l 521 868 l 521 521 l 347 521 m 694 521 l 694 868 l 868 868 l 868 521 l 694 521 m 174 868 l 174 1042 l 347 1042 l 347 868 l 174 868 m 521 868 l 521 1042 l 694 1042 l 694 868 l 521 868 m 0 1042 l 0 1215 l 174 1215 l 174 1042 l 0 1042 m 347 1042 l 347 1215 l 521 1215 l 521 1042 l 347 1042 z "},"¼":{"ha":1138,"x_min":0,"x_max":868,"o":"m 0 174 l 0 347 l 174 347 l 174 174 l 0 174 m 694 0 l 694 174 l 347 174 l 347 347 l 174 347 l 174 521 l 347 521 l 347 694 l 521 694 l 521 347 l 694 347 l 694 521 l 868 521 l 868 0 l 694 0 m 521 694 l 521 868 l 694 868 l 694 694 l 521 694 m 694 868 l 694 1042 l 868 1042 l 868 868 l 694 868 m 174 694 l 174 868 l 0 868 l 0 1042 l 174 1042 l 174 1215 l 347 1215 l 347 694 l 174 694 z "},"½":{"ha":1138,"x_min":0,"x_max":868,"o":"m 0 174 l 0 347 l 174 347 l 174 174 l 0 174 m 347 0 l 347 174 l 521 174 l 521 347 l 694 347 l 694 174 l 868 174 l 868 0 l 347 0 m 694 347 l 694 521 l 868 521 l 868 347 l 694 347 m 174 347 l 174 521 l 347 521 l 347 694 l 521 694 l 521 868 l 694 868 l 694 521 l 521 521 l 521 347 l 174 347 m 694 868 l 694 1042 l 868 1042 l 868 868 l 694 868 m 174 694 l 174 868 l 0 868 l 0 1042 l 174 1042 l 174 1215 l 347 1215 l 347 694 l 174 694 z "},"¿":{"ha":1138,"x_min":0,"x_max":868,"o":"m 174 0 l 174 174 l 694 174 l 694 0 l 174 0 m 694 174 l 694 347 l 868 347 l 868 174 l 694 174 m 0 174 l 0 521 l 174 521 l 174 174 l 0 174 m 174 521 l 174 694 l 347 694 l 347 521 l 174 521 m 347 694 l 347 868 l 521 868 l 521 694 l 347 694 m 347 1042 l 347 1215 l 521 1215 l 521 1042 l 347 1042 z "},"À":{"ha":1138,"x_min":0,"x_max":868,"o":"m 0 0 l 0 694 l 174 694 l 174 521 l 694 521 l 694 694 l 868 694 l 868 0 l 694 0 l 694 347 l 174 347 l 174 0 l 0 0 m 174 694 l 174 868 l 347 868 l 347 1042 l 521 1042 l 521 868 l 694 868 l 694 694 l 174 694 m 174 1042 l 174 1215 l 347 1215 l 347 1042 l 174 1042 z "},"Á":{"ha":1138,"x_min":0,"x_max":868,"o":"m 0 0 l 0 694 l 174 694 l 174 521 l 694 521 l 694 694 l 868 694 l 868 0 l 694 0 l 694 347 l 174 347 l 174 0 l 0 0 m 174 694 l 174 868 l 347 868 l 347 1042 l 521 1042 l 521 868 l 694 868 l 694 694 l 174 694 m 521 1042 l 521 1215 l 694 1215 l 694 1042 l 521 1042 z "},"Â":{"ha":1138,"x_min":0,"x_max":868,"o":"m 0 0 l 0 694 l 174 694 l 174 521 l 694 521 l 694 694 l 868 694 l 868 0 l 694 0 l 694 347 l 174 347 l 174 0 l 0 0 m 174 694 l 174 1042 l 347 1042 l 347 868 l 521 868 l 521 1042 l 694 1042 l 694 694 l 174 694 m 347 1042 l 347 1215 l 521 1215 l 521 1042 l 347 1042 z "},"Ã":{"ha":1138,"x_min":0,"x_max":868,"o":"m 0 0 l 0 694 l 174 694 l 174 521 l 694 521 l 694 694 l 868 694 l 868 0 l 694 0 l 694 347 l 174 347 l 174 0 l 0 0 m 0 868 l 0 1042 l 174 1042 l 174 868 l 0 868 m 174 694 l 174 868 l 347 868 l 347 1042 l 694 1042 l 694 694 l 174 694 m 174 1042 l 174 1215 l 347 1215 l 347 1042 l 174 1042 m 694 1042 l 694 1215 l 868 1215 l 868 1042 l 694 1042 z "},"Ä":{"ha":1138,"x_min":0,"x_max":868,"o":"m 0 0 l 0 694 l 174 694 l 174 521 l 694 521 l 694 694 l 868 694 l 868 0 l 694 0 l 694 347 l 174 347 l 174 0 l 0 0 m 174 694 l 174 868 l 694 868 l 694 694 l 174 694 m 174 1042 l 174 1215 l 347 1215 l 347 1042 l 174 1042 m 521 1042 l 521 1215 l 694 1215 l 694 1042 l 521 1042 z "},"Å":{"ha":1138,"x_min":0,"x_max":868,"o":"m 0 0 l 0 694 l 174 694 l 174 521 l 694 521 l 694 694 l 868 694 l 868 0 l 694 0 l 694 347 l 174 347 l 174 0 l 0 0 m 521 868 l 521 1042 l 347 1042 l 347 868 l 521 868 m 174 694 l 174 1215 l 694 1215 l 694 694 l 174 694 z "},"Æ":{"ha":1138,"x_min":0,"x_max":868,"o":"m 0 0 l 0 868 l 174 868 l 174 521 l 347 521 l 347 868 l 174 868 l 174 1042 l 347 1042 l 347 1215 l 868 1215 l 868 1042 l 521 1042 l 521 694 l 868 694 l 868 521 l 521 521 l 521 174 l 868 174 l 868 0 l 347 0 l 347 347 l 174 347 l 174 0 l 0 0 z "},"Ç":{"ha":1138,"x_min":0,"x_max":868,"o":"m 174 0 l 174 174 l 521 174 l 521 347 l 174 347 l 174 521 l 868 521 l 868 347 l 694 347 l 694 174 l 868 174 l 868 0 l 174 0 m 0 521 l 0 1042 l 174 1042 l 174 521 l 0 521 m 174 1042 l 174 1215 l 868 1215 l 868 1042 l 174 1042 z "},"È":{"ha":1138,"x_min":0,"x_max":868,"o":"m 0 0 l 0 868 l 347 868 l 347 1042 l 521 1042 l 521 868 l 868 868 l 868 694 l 174 694 l 174 521 l 694 521 l 694 347 l 174 347 l 174 174 l 868 174 l 868 0 l 0 0 m 174 1042 l 174 1215 l 347 1215 l 347 1042 l 174 1042 z "},"É":{"ha":1138,"x_min":0,"x_max":868,"o":"m 0 0 l 0 868 l 347 868 l 347 1042 l 521 1042 l 521 868 l 868 868 l 868 694 l 174 694 l 174 521 l 694 521 l 694 347 l 174 347 l 174 174 l 868 174 l 868 0 l 0 0 m 521 1042 l 521 1215 l 694 1215 l 694 1042 l 521 1042 z "},"Ê":{"ha":1138,"x_min":0,"x_max":868,"o":"m 0 0 l 0 868 l 174 868 l 174 1042 l 347 1042 l 347 868 l 521 868 l 521 1042 l 694 1042 l 694 868 l 868 868 l 868 694 l 174 694 l 174 521 l 694 521 l 694 347 l 174 347 l 174 174 l 868 174 l 868 0 l 0 0 m 347 1042 l 347 1215 l 521 1215 l 521 1042 l 347 1042 z "},"Ë":{"ha":1138,"x_min":0,"x_max":868,"o":"m 0 0 l 0 868 l 868 868 l 868 694 l 174 694 l 174 521 l 694 521 l 694 347 l 174 347 l 174 174 l 868 174 l 868 0 l 0 0 m 174 1042 l 174 1215 l 347 1215 l 347 1042 l 174 1042 m 521 1042 l 521 1215 l 694 1215 l 694 1042 l 521 1042 z "},"Ì":{"ha":1138,"x_min":174,"x_max":694,"o":"m 174 0 l 174 174 l 347 174 l 347 694 l 174 694 l 174 868 l 347 868 l 347 1042 l 521 1042 l 521 868 l 694 868 l 694 694 l 521 694 l 521 174 l 694 174 l 694 0 l 174 0 m 174 1042 l 174 1215 l 347 1215 l 347 1042 l 174 1042 z "},"Í":{"ha":1138,"x_min":174,"x_max":694,"o":"m 174 0 l 174 174 l 347 174 l 347 694 l 174 694 l 174 868 l 347 868 l 347 1042 l 521 1042 l 521 868 l 694 868 l 694 694 l 521 694 l 521 174 l 694 174 l 694 0 l 174 0 m 521 1042 l 521 1215 l 694 1215 l 694 1042 l 521 1042 z "},"Î":{"ha":1138,"x_min":174,"x_max":694,"o":"m 174 0 l 174 174 l 347 174 l 347 694 l 174 694 l 174 1042 l 347 1042 l 347 868 l 521 868 l 521 1042 l 694 1042 l 694 694 l 521 694 l 521 174 l 694 174 l 694 0 l 174 0 m 347 1042 l 347 1215 l 521 1215 l 521 1042 l 347 1042 z "},"Ï":{"ha":1138,"x_min":174,"x_max":694,"o":"m 174 0 l 174 174 l 347 174 l 347 694 l 174 694 l 174 868 l 694 868 l 694 694 l 521 694 l 521 174 l 694 174 l 694 0 l 174 0 m 174 1042 l 174 1215 l 347 1215 l 347 1042 l 174 1042 m 521 1042 l 521 1215 l 694 1215 l 694 1042 l 521 1042 z "},"Ð":{"ha":1138,"x_min":0,"x_max":868,"o":"m 521 174 l 521 347 l 694 347 l 694 174 l 521 174 m 694 347 l 694 868 l 868 868 l 868 347 l 694 347 m 521 868 l 521 1042 l 694 1042 l 694 868 l 521 868 m 174 0 l 174 521 l 0 521 l 0 694 l 174 694 l 174 1215 l 521 1215 l 521 1042 l 347 1042 l 347 694 l 521 694 l 521 521 l 347 521 l 347 174 l 521 174 l 521 0 l 174 0 z "},"Ñ":{"ha":1138,"x_min":0,"x_max":868,"o":"m 347 347 l 347 521 l 521 521 l 521 347 l 347 347 m 694 0 l 694 174 l 521 174 l 521 347 l 694 347 l 694 868 l 868 868 l 868 0 l 694 0 m 0 0 l 0 1042 l 174 1042 l 174 694 l 347 694 l 347 521 l 174 521 l 174 0 l 0 0 m 347 868 l 347 1042 l 694 1042 l 694 868 l 347 868 m 174 1042 l 174 1215 l 347 1215 l 347 1042 l 174 1042 m 694 1042 l 694 1215 l 868 1215 l 868 1042 l 694 1042 z "},"Ò":{"ha":1138,"x_min":0,"x_max":868,"o":"m 174 0 l 174 174 l 694 174 l 694 0 l 174 0 m 0 174 l 0 694 l 174 694 l 174 174 l 0 174 m 694 174 l 694 694 l 868 694 l 868 174 l 694 174 m 174 694 l 174 868 l 347 868 l 347 1042 l 521 1042 l 521 868 l 694 868 l 694 694 l 174 694 m 174 1042 l 174 1215 l 347 1215 l 347 1042 l 174 1042 z "},"Ó":{"ha":1138,"x_min":0,"x_max":868,"o":"m 174 0 l 174 174 l 694 174 l 694 0 l 174 0 m 0 174 l 0 694 l 174 694 l 174 174 l 0 174 m 694 174 l 694 694 l 868 694 l 868 174 l 694 174 m 174 694 l 174 868 l 347 868 l 347 1042 l 521 1042 l 521 868 l 694 868 l 694 694 l 174 694 m 521 1042 l 521 1215 l 694 1215 l 694 1042 l 521 1042 z "},"Ô":{"ha":1138,"x_min":0,"x_max":868,"o":"m 174 0 l 174 174 l 694 174 l 694 0 l 174 0 m 0 174 l 0 694 l 174 694 l 174 174 l 0 174 m 694 174 l 694 694 l 868 694 l 868 174 l 694 174 m 174 694 l 174 1042 l 347 1042 l 347 868 l 521 868 l 521 1042 l 694 1042 l 694 694 l 174 694 m 347 1042 l 347 1215 l 521 1215 l 521 1042 l 347 1042 z "},"Õ":{"ha":1138,"x_min":0,"x_max":868,"o":"m 174 0 l 174 174 l 694 174 l 694 0 l 174 0 m 0 174 l 0 694 l 174 694 l 174 174 l 0 174 m 694 174 l 694 694 l 868 694 l 868 174 l 694 174 m 0 868 l 0 1042 l 174 1042 l 174 868 l 0 868 m 174 694 l 174 868 l 347 868 l 347 1042 l 694 1042 l 694 694 l 174 694 m 174 1042 l 174 1215 l 347 1215 l 347 1042 l 174 1042 m 694 1042 l 694 1215 l 868 1215 l 868 1042 l 694 1042 z "},"Ö":{"ha":1138,"x_min":0,"x_max":868,"o":"m 174 0 l 174 174 l 694 174 l 694 0 l 174 0 m 0 174 l 0 694 l 174 694 l 174 174 l 0 174 m 694 174 l 694 694 l 868 694 l 868 174 l 694 174 m 174 694 l 174 868 l 694 868 l 694 694 l 174 694 m 174 1042 l 174 1215 l 347 1215 l 347 1042 l 174 1042 m 521 1042 l 521 1215 l 694 1215 l 694 1042 l 521 1042 z "},"×":{"ha":1138,"x_min":0,"x_max":868,"o":"m 0 174 l 0 347 l 174 347 l 174 174 l 0 174 m 694 174 l 694 347 l 868 347 l 868 174 l 694 174 m 174 347 l 174 521 l 347 521 l 347 347 l 174 347 m 521 347 l 521 521 l 694 521 l 694 347 l 521 347 m 347 521 l 347 694 l 521 694 l 521 521 l 347 521 m 174 694 l 174 868 l 347 868 l 347 694 l 174 694 m 521 694 l 521 868 l 694 868 l 694 694 l 521 694 m 0 868 l 0 1042 l 174 1042 l 174 868 l 0 868 m 694 868 l 694 1042 l 868 1042 l 868 868 l 694 868 z "},"Ø":{"ha":1138,"x_min":0,"x_max":868,"o":"m 347 0 l 347 174 l 521 174 l 521 0 l 347 0 m 174 174 l 174 347 l 0 347 l 0 521 l 174 521 l 174 1042 l 347 1042 l 347 694 l 521 694 l 521 1042 l 694 1042 l 694 868 l 868 868 l 868 694 l 694 694 l 694 174 l 521 174 l 521 521 l 347 521 l 347 174 l 174 174 m 347 1042 l 347 1215 l 521 1215 l 521 1042 l 347 1042 z "},"Ù":{"ha":1138,"x_min":0,"x_max":868,"o":"m 174 0 l 174 174 l 694 174 l 694 0 l 174 0 m 0 174 l 0 868 l 174 868 l 174 174 l 0 174 m 694 174 l 694 868 l 868 868 l 868 174 l 694 174 m 347 868 l 347 1042 l 521 1042 l 521 868 l 347 868 m 174 1042 l 174 1215 l 347 1215 l 347 1042 l 174 1042 z "},"Ú":{"ha":1138,"x_min":0,"x_max":868,"o":"m 174 0 l 174 174 l 694 174 l 694 0 l 174 0 m 0 174 l 0 868 l 174 868 l 174 174 l 0 174 m 694 174 l 694 868 l 868 868 l 868 174 l 694 174 m 347 868 l 347 1042 l 521 1042 l 521 868 l 347 868 m 521 1042 l 521 1215 l 694 1215 l 694 1042 l 521 1042 z "},"Û":{"ha":1138,"x_min":0,"x_max":868,"o":"m 174 0 l 174 174 l 694 174 l 694 0 l 174 0 m 0 174 l 0 868 l 174 868 l 174 174 l 0 174 m 694 174 l 694 868 l 868 868 l 868 174 l 694 174 m 174 868 l 174 1042 l 347 1042 l 347 868 l 174 868 m 521 868 l 521 1042 l 694 1042 l 694 868 l 521 868 m 347 1042 l 347 1215 l 521 1215 l 521 1042 l 347 1042 z "},"Ü":{"ha":1138,"x_min":0,"x_max":868,"o":"m 174 0 l 174 174 l 694 174 l 694 0 l 174 0 m 0 174 l 0 868 l 174 868 l 174 174 l 0 174 m 694 174 l 694 868 l 868 868 l 868 174 l 694 174 m 174 1042 l 174 1215 l 347 1215 l 347 1042 l 174 1042 m 521 1042 l 521 1215 l 694 1215 l 694 1042 l 521 1042 z "},"Ý":{"ha":1138,"x_min":0,"x_max":868,"o":"m 347 0 l 347 521 l 521 521 l 521 0 l 347 0 m 174 521 l 174 694 l 347 694 l 347 521 l 174 521 m 521 521 l 521 694 l 694 694 l 694 521 l 521 521 m 0 694 l 0 868 l 174 868 l 174 694 l 0 694 m 694 694 l 694 868 l 868 868 l 868 694 l 694 694 m 347 868 l 347 1042 l 521 1042 l 521 868 l 347 868 m 521 1042 l 521 1215 l 694 1215 l 694 1042 l 521 1042 z "},"Þ":{"ha":1138,"x_min":0,"x_max":868,"o":"m 694 521 l 694 868 l 868 868 l 868 521 l 694 521 m 0 0 l 0 1215 l 174 1215 l 174 1042 l 694 1042 l 694 868 l 174 868 l 174 521 l 694 521 l 694 347 l 174 347 l 174 0 l 0 0 z "},"ß":{"ha":1138,"x_min":0,"x_max":868,"o":"m 0 0 l 0 174 l 174 174 l 174 0 l 0 0 m 521 0 l 521 174 l 694 174 l 694 0 l 521 0 m 694 174 l 694 521 l 868 521 l 868 174 l 694 174 m 174 174 l 174 868 l 347 868 l 347 694 l 694 694 l 694 521 l 347 521 l 347 347 l 521 347 l 521 174 l 174 174 m 694 694 l 694 868 l 868 868 l 868 694 l 694 694 m 347 868 l 347 1042 l 694 1042 l 694 868 l 347 868 z "},"à":{"ha":1138,"x_min":0,"x_max":868,"o":"m 0 174 l 0 347 l 174 347 l 174 174 l 0 174 m 174 0 l 174 174 l 694 174 l 694 347 l 174 347 l 174 521 l 694 521 l 694 694 l 868 694 l 868 0 l 174 0 m 174 694 l 174 868 l 347 868 l 347 1042 l 521 1042 l 521 868 l 694 868 l 694 694 l 174 694 m 174 1042 l 174 1215 l 347 1215 l 347 1042 l 174 1042 z "},"á":{"ha":1138,"x_min":0,"x_max":868,"o":"m 0 174 l 0 347 l 174 347 l 174 174 l 0 174 m 174 0 l 174 174 l 694 174 l 694 347 l 174 347 l 174 521 l 694 521 l 694 694 l 868 694 l 868 0 l 174 0 m 174 694 l 174 868 l 347 868 l 347 1042 l 521 1042 l 521 868 l 694 868 l 694 694 l 174 694 m 521 1042 l 521 1215 l 694 1215 l 694 1042 l 521 1042 z "},"â":{"ha":1138,"x_min":0,"x_max":868,"o":"m 0 174 l 0 347 l 174 347 l 174 174 l 0 174 m 174 0 l 174 174 l 694 174 l 694 347 l 174 347 l 174 521 l 694 521 l 694 694 l 868 694 l 868 0 l 174 0 m 174 694 l 174 868 l 694 868 l 694 694 l 174 694 m 174 1042 l 174 1215 l 347 1215 l 347 1042 l 174 1042 m 521 1042 l 521 1215 l 694 1215 l 694 1042 l 521 1042 z "},"ã":{"ha":1138,"x_min":0,"x_max":868,"o":"m 0 174 l 0 347 l 174 347 l 174 174 l 0 174 m 174 0 l 174 174 l 694 174 l 694 347 l 174 347 l 174 521 l 694 521 l 694 694 l 868 694 l 868 0 l 174 0 m 0 868 l 0 1042 l 174 1042 l 174 868 l 0 868 m 174 694 l 174 868 l 347 868 l 347 1042 l 694 1042 l 694 694 l 174 694 m 174 1042 l 174 1215 l 347 1215 l 347 1042 l 174 1042 m 694 1042 l 694 1215 l 868 1215 l 868 1042 l 694 1042 z "},"ä":{"ha":1138,"x_min":0,"x_max":868,"o":"m 0 174 l 0 347 l 174 347 l 174 174 l 0 174 m 174 0 l 174 174 l 694 174 l 694 347 l 174 347 l 174 521 l 694 521 l 694 694 l 868 694 l 868 0 l 174 0 m 174 694 l 174 868 l 694 868 l 694 694 l 174 694 m 174 1042 l 174 1215 l 347 1215 l 347 1042 l 174 1042 m 521 1042 l 521 1215 l 694 1215 l 694 1042 l 521 1042 z "},"å":{"ha":1138,"x_min":0,"x_max":868,"o":"m 0 174 l 0 347 l 174 347 l 174 174 l 0 174 m 174 0 l 174 174 l 694 174 l 694 347 l 174 347 l 174 521 l 694 521 l 694 694 l 868 694 l 868 0 l 174 0 m 521 868 l 521 1042 l 347 1042 l 347 868 l 521 868 m 174 694 l 174 1215 l 694 1215 l 694 694 l 174 694 z "},"æ":{"ha":1138,"x_min":0,"x_max":868,"o":"m 0 0 l 0 347 l 174 347 l 174 174 l 347 174 l 347 347 l 174 347 l 174 521 l 347 521 l 347 694 l 521 694 l 521 521 l 694 521 l 694 694 l 868 694 l 868 347 l 521 347 l 521 174 l 868 174 l 868 0 l 0 0 m 0 694 l 0 868 l 347 868 l 347 694 l 0 694 m 521 694 l 521 868 l 694 868 l 694 694 l 521 694 z "},"ç":{"ha":1138,"x_min":0,"x_max":694,"o":"m 0 0 l 0 174 l 347 174 l 347 347 l 174 347 l 174 521 l 694 521 l 694 347 l 521 347 l 521 0 l 0 0 m 0 521 l 0 868 l 174 868 l 174 521 l 0 521 m 174 868 l 174 1042 l 694 1042 l 694 868 l 174 868 z "},"è":{"ha":1138,"x_min":0,"x_max":868,"o":"m 174 0 l 174 174 l 694 174 l 694 0 l 174 0 m 0 174 l 0 694 l 174 694 l 174 521 l 694 521 l 694 694 l 868 694 l 868 347 l 174 347 l 174 174 l 0 174 m 174 694 l 174 868 l 347 868 l 347 1042 l 521 1042 l 521 868 l 694 868 l 694 694 l 174 694 m 174 1042 l 174 1215 l 347 1215 l 347 1042 l 174 1042 z "},"é":{"ha":1138,"x_min":0,"x_max":868,"o":"m 174 0 l 174 174 l 694 174 l 694 0 l 174 0 m 0 174 l 0 694 l 174 694 l 174 521 l 694 521 l 694 694 l 868 694 l 868 347 l 174 347 l 174 174 l 0 174 m 174 694 l 174 868 l 347 868 l 347 1042 l 521 1042 l 521 868 l 694 868 l 694 694 l 174 694 m 521 1042 l 521 1215 l 694 1215 l 694 1042 l 521 1042 z "},"ê":{"ha":1138,"x_min":0,"x_max":868,"o":"m 174 0 l 174 174 l 694 174 l 694 0 l 174 0 m 0 174 l 0 694 l 174 694 l 174 521 l 694 521 l 694 694 l 868 694 l 868 347 l 174 347 l 174 174 l 0 174 m 174 694 l 174 1042 l 347 1042 l 347 868 l 521 868 l 521 1042 l 694 1042 l 694 694 l 174 694 m 347 1042 l 347 1215 l 521 1215 l 521 1042 l 347 1042 z "},"ë":{"ha":1138,"x_min":0,"x_max":868,"o":"m 174 0 l 174 174 l 694 174 l 694 0 l 174 0 m 0 174 l 0 694 l 174 694 l 174 521 l 694 521 l 694 694 l 868 694 l 868 347 l 174 347 l 174 174 l 0 174 m 174 694 l 174 868 l 694 868 l 694 694 l 174 694 m 174 1042 l 174 1215 l 347 1215 l 347 1042 l 174 1042 m 521 1042 l 521 1215 l 694 1215 l 694 1042 l 521 1042 z "},"ì":{"ha":1138,"x_min":174,"x_max":694,"o":"m 174 0 l 174 174 l 347 174 l 347 521 l 174 521 l 174 694 l 521 694 l 521 174 l 694 174 l 694 0 l 174 0 m 347 868 l 347 1042 l 521 1042 l 521 868 l 347 868 m 174 1042 l 174 1215 l 347 1215 l 347 1042 l 174 1042 z "},"í":{"ha":1138,"x_min":174,"x_max":694,"o":"m 174 0 l 174 174 l 347 174 l 347 521 l 174 521 l 174 694 l 521 694 l 521 174 l 694 174 l 694 0 l 174 0 m 347 868 l 347 1042 l 521 1042 l 521 868 l 347 868 m 521 1042 l 521 1215 l 694 1215 l 694 1042 l 521 1042 z "},"î":{"ha":1138,"x_min":174,"x_max":694,"o":"m 174 0 l 174 174 l 347 174 l 347 521 l 174 521 l 174 694 l 521 694 l 521 174 l 694 174 l 694 0 l 174 0 m 174 868 l 174 1042 l 347 1042 l 347 868 l 174 868 m 521 868 l 521 1042 l 694 1042 l 694 868 l 521 868 m 347 1042 l 347 1215 l 521 1215 l 521 1042 l 347 1042 z "},"ï":{"ha":1138,"x_min":174,"x_max":694,"o":"m 174 0 l 174 174 l 347 174 l 347 521 l 174 521 l 174 694 l 521 694 l 521 174 l 694 174 l 694 0 l 174 0 m 174 1042 l 174 1215 l 347 1215 l 347 1042 l 174 1042 m 521 1042 l 521 1215 l 694 1215 l 694 1042 l 521 1042 z "},"ð":{"ha":1138,"x_min":0,"x_max":868,"o":"m 0 174 l 0 521 l 174 521 l 174 174 l 0 174 m 174 521 l 174 694 l 347 694 l 347 521 l 174 521 m 174 0 l 174 174 l 521 174 l 521 347 l 347 347 l 347 521 l 521 521 l 521 868 l 347 868 l 347 1042 l 521 1042 l 521 1215 l 694 1215 l 694 1042 l 868 1042 l 868 868 l 694 868 l 694 0 l 174 0 z "},"ñ":{"ha":1138,"x_min":0,"x_max":868,"o":"m 694 0 l 694 521 l 868 521 l 868 0 l 694 0 m 0 0 l 0 694 l 174 694 l 174 521 l 347 521 l 347 347 l 174 347 l 174 0 l 0 0 m 347 521 l 347 694 l 694 694 l 694 521 l 347 521 m 0 868 l 0 1042 l 174 1042 l 174 868 l 0 868 m 347 868 l 347 1042 l 694 1042 l 694 868 l 347 868 m 174 1042 l 174 1215 l 347 1215 l 347 1042 l 174 1042 m 694 1042 l 694 1215 l 868 1215 l 868 1042 l 694 1042 z "},"ò":{"ha":1138,"x_min":0,"x_max":868,"o":"m 174 0 l 174 174 l 694 174 l 694 0 l 174 0 m 0 174 l 0 521 l 174 521 l 174 174 l 0 174 m 694 174 l 694 521 l 868 521 l 868 174 l 694 174 m 174 521 l 174 694 l 694 694 l 694 521 l 174 521 m 347 868 l 347 1042 l 521 1042 l 521 868 l 347 868 m 174 1042 l 174 1215 l 347 1215 l 347 1042 l 174 1042 z "},"ó":{"ha":1138,"x_min":0,"x_max":868,"o":"m 174 0 l 174 174 l 694 174 l 694 0 l 174 0 m 0 174 l 0 521 l 174 521 l 174 174 l 0 174 m 694 174 l 694 521 l 868 521 l 868 174 l 694 174 m 174 521 l 174 694 l 694 694 l 694 521 l 174 521 m 347 868 l 347 1042 l 521 1042 l 521 868 l 347 868 m 521 1042 l 521 1215 l 694 1215 l 694 1042 l 521 1042 z "},"ô":{"ha":1138,"x_min":0,"x_max":868,"o":"m 174 0 l 174 174 l 694 174 l 694 0 l 174 0 m 0 174 l 0 521 l 174 521 l 174 174 l 0 174 m 694 174 l 694 521 l 868 521 l 868 174 l 694 174 m 174 521 l 174 694 l 694 694 l 694 521 l 174 521 m 174 868 l 174 1042 l 347 1042 l 347 868 l 174 868 m 521 868 l 521 1042 l 694 1042 l 694 868 l 521 868 m 347 1042 l 347 1215 l 521 1215 l 521 1042 l 347 1042 z "},"õ":{"ha":1138,"x_min":0,"x_max":868,"o":"m 174 0 l 174 174 l 694 174 l 694 0 l 174 0 m 0 174 l 0 521 l 174 521 l 174 174 l 0 174 m 694 174 l 694 521 l 868 521 l 868 174 l 694 174 m 174 521 l 174 694 l 694 694 l 694 521 l 174 521 m 0 868 l 0 1042 l 174 1042 l 174 868 l 0 868 m 347 868 l 347 1042 l 694 1042 l 694 868 l 347 868 m 174 1042 l 174 1215 l 347 1215 l 347 1042 l 174 1042 m 694 1042 l 694 1215 l 868 1215 l 868 1042 l 694 1042 z "},"ö":{"ha":1138,"x_min":0,"x_max":868,"o":"m 174 0 l 174 174 l 694 174 l 694 0 l 174 0 m 0 174 l 0 521 l 174 521 l 174 174 l 0 174 m 694 174 l 694 521 l 868 521 l 868 174 l 694 174 m 174 521 l 174 694 l 694 694 l 694 521 l 174 521 m 174 1042 l 174 1215 l 347 1215 l 347 1042 l 174 1042 m 521 1042 l 521 1215 l 694 1215 l 694 1042 l 521 1042 z "},"÷":{"ha":1138,"x_min":0,"x_max":868,"o":"m 347 174 l 347 347 l 521 347 l 521 174 l 347 174 m 0 521 l 0 694 l 868 694 l 868 521 l 0 521 m 347 868 l 347 1042 l 521 1042 l 521 868 l 347 868 z "},"ø":{"ha":1138,"x_min":0,"x_max":868,"o":"m 347 0 l 347 174 l 521 174 l 521 0 l 347 0 m 0 174 l 0 347 l 174 347 l 174 694 l 347 694 l 347 521 l 521 521 l 521 694 l 868 694 l 868 521 l 694 521 l 694 174 l 521 174 l 521 347 l 347 347 l 347 174 l 0 174 m 347 694 l 347 868 l 521 868 l 521 694 l 347 694 z "},"ù":{"ha":1138,"x_min":0,"x_max":868,"o":"m 174 0 l 174 174 l 521 174 l 521 0 l 174 0 m 0 174 l 0 694 l 174 694 l 174 174 l 0 174 m 694 0 l 694 174 l 521 174 l 521 347 l 694 347 l 694 694 l 868 694 l 868 0 l 694 0 m 347 868 l 347 1042 l 521 1042 l 521 868 l 347 868 m 174 1042 l 174 1215 l 347 1215 l 347 1042 l 174 1042 z "},"ú":{"ha":1138,"x_min":0,"x_max":868,"o":"m 174 0 l 174 174 l 521 174 l 521 0 l 174 0 m 0 174 l 0 694 l 174 694 l 174 174 l 0 174 m 694 0 l 694 174 l 521 174 l 521 347 l 694 347 l 694 694 l 868 694 l 868 0 l 694 0 m 347 868 l 347 1042 l 521 1042 l 521 868 l 347 868 m 521 1042 l 521 1215 l 694 1215 l 694 1042 l 521 1042 z "},"û":{"ha":1138,"x_min":0,"x_max":868,"o":"m 174 0 l 174 174 l 521 174 l 521 0 l 174 0 m 0 174 l 0 694 l 174 694 l 174 174 l 0 174 m 694 0 l 694 174 l 521 174 l 521 347 l 694 347 l 694 694 l 868 694 l 868 0 l 694 0 m 174 868 l 174 1042 l 347 1042 l 347 868 l 174 868 m 521 868 l 521 1042 l 694 1042 l 694 868 l 521 868 m 347 1042 l 347 1215 l 521 1215 l 521 1042 l 347 1042 z "},"ü":{"ha":1138,"x_min":0,"x_max":868,"o":"m 174 0 l 174 174 l 521 174 l 521 0 l 174 0 m 0 174 l 0 694 l 174 694 l 174 174 l 0 174 m 694 0 l 694 174 l 521 174 l 521 347 l 694 347 l 694 694 l 868 694 l 868 0 l 694 0 m 174 1042 l 174 1215 l 347 1215 l 347 1042 l 174 1042 m 521 1042 l 521 1215 l 694 1215 l 694 1042 l 521 1042 z "},"ý":{"ha":1138,"x_min":0,"x_max":868,"o":"m 0 0 l 0 174 l 347 174 l 347 0 l 0 0 m 347 174 l 347 521 l 694 521 l 694 347 l 521 347 l 521 174 l 347 174 m 174 521 l 174 694 l 347 694 l 347 521 l 174 521 m 0 694 l 0 868 l 174 868 l 174 694 l 0 694 m 694 521 l 694 868 l 868 868 l 868 521 l 694 521 m 347 868 l 347 1042 l 521 1042 l 521 868 l 347 868 m 521 1042 l 521 1215 l 694 1215 l 694 1042 l 521 1042 z "},"þ":{"ha":1138,"x_min":0,"x_max":868,"o":"m 694 521 l 694 694 l 868 694 l 868 521 l 694 521 m 0 0 l 0 1042 l 174 1042 l 174 868 l 694 868 l 694 694 l 174 694 l 174 521 l 694 521 l 694 347 l 174 347 l 174 0 l 0 0 z "},"ÿ":{"ha":1138,"x_min":0,"x_max":868,"o":"m 0 0 l 0 174 l 347 174 l 347 0 l 0 0 m 347 174 l 347 521 l 694 521 l 694 347 l 521 347 l 521 174 l 347 174 m 174 521 l 174 694 l 347 694 l 347 521 l 174 521 m 0 694 l 0 868 l 174 868 l 174 694 l 0 694 m 694 521 l 694 868 l 868 868 l 868 521 l 694 521 m 174 1042 l 174 1215 l 347 1215 l 347 1042 l 174 1042 m 521 1042 l 521 1215 l 694 1215 l 694 1042 l 521 1042 z "},"Ă":{"ha":1138,"x_min":0,"x_max":868,"o":"m 0 0 l 0 694 l 174 694 l 174 521 l 694 521 l 694 694 l 868 694 l 868 0 l 694 0 l 694 347 l 174 347 l 174 0 l 0 0 m 174 694 l 174 1042 l 694 1042 l 694 694 l 174 694 m 0 1042 l 0 1215 l 174 1215 l 174 1042 l 0 1042 m 694 1042 l 694 1215 l 868 1215 l 868 1042 l 694 1042 z "},"ă":{"ha":1138,"x_min":0,"x_max":868,"o":"m 0 174 l 0 347 l 174 347 l 174 174 l 0 174 m 174 0 l 174 174 l 694 174 l 694 347 l 174 347 l 174 521 l 694 521 l 694 694 l 868 694 l 868 0 l 174 0 m 174 694 l 174 1042 l 694 1042 l 694 694 l 174 694 m 0 1042 l 0 1215 l 174 1215 l 174 1042 l 0 1042 m 694 1042 l 694 1215 l 868 1215 l 868 1042 l 694 1042 z "},"Ą":{"ha":1138,"x_min":0,"x_max":868,"o":"m 521 0 l 521 347 l 694 347 l 694 174 l 868 174 l 868 0 l 521 0 m 0 347 l 0 1042 l 174 1042 l 174 868 l 694 868 l 694 1042 l 868 1042 l 868 347 l 694 347 l 694 694 l 174 694 l 174 347 l 0 347 m 174 1042 l 174 1215 l 694 1215 l 694 1042 l 174 1042 z "},"ą":{"ha":1138,"x_min":0,"x_max":868,"o":"m 0 521 l 0 694 l 174 694 l 174 521 l 0 521 m 521 0 l 521 347 l 174 347 l 174 521 l 694 521 l 694 694 l 174 694 l 174 868 l 694 868 l 694 1042 l 868 1042 l 868 347 l 694 347 l 694 174 l 868 174 l 868 0 l 521 0 m 174 1042 l 174 1215 l 694 1215 l 694 1042 l 174 1042 z "},"đ":{"ha":1138,"x_min":0,"x_max":868,"o":"m 0 174 l 0 521 l 174 521 l 174 174 l 0 174 m 174 521 l 174 694 l 347 694 l 347 521 l 174 521 m 174 0 l 174 174 l 521 174 l 521 347 l 347 347 l 347 521 l 521 521 l 521 868 l 347 868 l 347 1042 l 521 1042 l 521 1215 l 694 1215 l 694 1042 l 868 1042 l 868 868 l 694 868 l 694 0 l 174 0 z "},"Ę":{"ha":1138,"x_min":0,"x_max":868,"o":"m 521 0 l 521 347 l 0 347 l 0 1215 l 868 1215 l 868 1042 l 174 1042 l 174 868 l 694 868 l 694 694 l 174 694 l 174 521 l 868 521 l 868 347 l 694 347 l 694 174 l 868 174 l 868 0 l 521 0 z "},"ę":{"ha":1138,"x_min":0,"x_max":868,"o":"m 521 0 l 521 347 l 174 347 l 174 521 l 694 521 l 694 174 l 868 174 l 868 0 l 521 0 m 0 521 l 0 1042 l 174 1042 l 174 868 l 694 868 l 694 1042 l 868 1042 l 868 694 l 174 694 l 174 521 l 0 521 m 174 1042 l 174 1215 l 694 1215 l 694 1042 l 174 1042 z "},"Ě":{"ha":1138,"x_min":0,"x_max":868,"o":"m 0 0 l 0 868 l 347 868 l 347 1042 l 521 1042 l 521 868 l 868 868 l 868 694 l 174 694 l 174 521 l 694 521 l 694 347 l 174 347 l 174 174 l 868 174 l 868 0 l 0 0 m 174 1042 l 174 1215 l 347 1215 l 347 1042 l 174 1042 m 521 1042 l 521 1215 l 694 1215 l 694 1042 l 521 1042 z "},"ě":{"ha":1138,"x_min":0,"x_max":868,"o":"m 174 0 l 174 174 l 694 174 l 694 0 l 174 0 m 0 174 l 0 694 l 174 694 l 174 521 l 694 521 l 694 694 l 868 694 l 868 347 l 174 347 l 174 174 l 0 174 m 174 694 l 174 868 l 347 868 l 347 1042 l 521 1042 l 521 868 l 694 868 l 694 694 l 174 694 m 174 1042 l 174 1215 l 347 1215 l 347 1042 l 174 1042 m 521 1042 l 521 1215 l 694 1215 l 694 1042 l 521 1042 z "},"Ł":{"ha":1138,"x_min":0,"x_max":868,"o":"m 174 0 l 174 521 l 0 521 l 0 694 l 174 694 l 174 1215 l 347 1215 l 347 868 l 521 868 l 521 694 l 347 694 l 347 174 l 868 174 l 868 0 l 174 0 z "},"ł":{"ha":791,"x_min":0,"x_max":521,"o":"m 0 0 l 0 174 l 174 174 l 174 521 l 0 521 l 0 694 l 174 694 l 174 1042 l 0 1042 l 0 1215 l 347 1215 l 347 868 l 521 868 l 521 694 l 347 694 l 347 174 l 521 174 l 521 0 l 0 0 z "},"Ń":{"ha":1138,"x_min":0,"x_max":868,"o":"m 347 347 l 347 521 l 521 521 l 521 347 l 347 347 m 0 0 l 0 868 l 174 868 l 174 694 l 347 694 l 347 521 l 174 521 l 174 0 l 0 0 m 694 0 l 694 174 l 521 174 l 521 347 l 694 347 l 694 868 l 868 868 l 868 0 l 694 0 m 347 868 l 347 1042 l 521 1042 l 521 868 l 347 868 m 521 1042 l 521 1215 l 694 1215 l 694 1042 l 521 1042 z "},"ń":{"ha":1138,"x_min":0,"x_max":868,"o":"m 694 0 l 694 521 l 868 521 l 868 0 l 694 0 m 0 0 l 0 694 l 174 694 l 174 521 l 347 521 l 347 347 l 174 347 l 174 0 l 0 0 m 347 521 l 347 694 l 694 694 l 694 521 l 347 521 m 347 868 l 347 1042 l 521 1042 l 521 868 l 347 868 m 521 1042 l 521 1215 l 694 1215 l 694 1042 l 521 1042 z "},"Ň":{"ha":1138,"x_min":0,"x_max":868,"o":"m 347 347 l 347 521 l 521 521 l 521 347 l 347 347 m 0 0 l 0 868 l 174 868 l 174 694 l 347 694 l 347 521 l 174 521 l 174 0 l 0 0 m 694 0 l 694 174 l 521 174 l 521 347 l 694 347 l 694 868 l 868 868 l 868 0 l 694 0 m 347 868 l 347 1042 l 521 1042 l 521 868 l 347 868 m 174 1042 l 174 1215 l 347 1215 l 347 1042 l 174 1042 m 521 1042 l 521 1215 l 694 1215 l 694 1042 l 521 1042 z "},"ň":{"ha":1138,"x_min":0,"x_max":868,"o":"m 694 0 l 694 521 l 868 521 l 868 0 l 694 0 m 0 0 l 0 694 l 174 694 l 174 521 l 347 521 l 347 347 l 174 347 l 174 0 l 0 0 m 347 521 l 347 694 l 694 694 l 694 521 l 347 521 m 347 868 l 347 1042 l 521 1042 l 521 868 l 347 868 m 174 1042 l 174 1215 l 347 1215 l 347 1042 l 174 1042 m 521 1042 l 521 1215 l 694 1215 l 694 1042 l 521 1042 z "},"Ő":{"ha":1138,"x_min":0,"x_max":868,"o":"m 174 0 l 174 174 l 694 174 l 694 0 l 174 0 m 0 174 l 0 694 l 174 694 l 174 174 l 0 174 m 694 174 l 694 694 l 868 694 l 868 174 l 694 174 m 0 868 l 0 1042 l 174 1042 l 174 868 l 0 868 m 174 694 l 174 868 l 521 868 l 521 1042 l 694 1042 l 694 694 l 174 694 m 174 1042 l 174 1215 l 347 1215 l 347 1042 l 174 1042 m 694 1042 l 694 1215 l 868 1215 l 868 1042 l 694 1042 z "},"ő":{"ha":1138,"x_min":0,"x_max":868,"o":"m 174 0 l 174 174 l 694 174 l 694 0 l 174 0 m 0 174 l 0 521 l 174 521 l 174 174 l 0 174 m 694 174 l 694 521 l 868 521 l 868 174 l 694 174 m 174 521 l 174 694 l 694 694 l 694 521 l 174 521 m 0 868 l 0 1042 l 174 1042 l 174 868 l 0 868 m 521 868 l 521 1042 l 694 1042 l 694 868 l 521 868 m 174 1042 l 174 1215 l 347 1215 l 347 1042 l 174 1042 m 694 1042 l 694 1215 l 868 1215 l 868 1042 l 694 1042 z "},"Œ":{"ha":1138,"x_min":0,"x_max":868,"o":"m 0 174 l 0 1042 l 174 1042 l 174 174 l 0 174 m 174 0 l 174 174 l 347 174 l 347 1042 l 174 1042 l 174 1215 l 868 1215 l 868 1042 l 521 1042 l 521 694 l 868 694 l 868 521 l 521 521 l 521 174 l 868 174 l 868 0 l 174 0 z "},"œ":{"ha":1138,"x_min":0,"x_max":868,"o":"m 174 0 l 174 174 l 347 174 l 347 0 l 174 0 m 521 0 l 521 174 l 868 174 l 868 0 l 521 0 m 0 174 l 0 694 l 174 694 l 174 174 l 0 174 m 347 174 l 347 694 l 521 694 l 521 521 l 694 521 l 694 694 l 868 694 l 868 347 l 521 347 l 521 174 l 347 174 m 174 694 l 174 868 l 347 868 l 347 694 l 174 694 m 521 694 l 521 868 l 694 868 l 694 694 l 521 694 z "},"Ř":{"ha":1138,"x_min":0,"x_max":868,"o":"m 694 0 l 694 174 l 868 174 l 868 0 l 694 0 m 694 521 l 694 694 l 868 694 l 868 521 l 694 521 m 0 0 l 0 868 l 347 868 l 347 1042 l 521 1042 l 521 868 l 694 868 l 694 694 l 174 694 l 174 521 l 694 521 l 694 174 l 521 174 l 521 347 l 174 347 l 174 0 l 0 0 m 174 1042 l 174 1215 l 347 1215 l 347 1042 l 174 1042 m 521 1042 l 521 1215 l 694 1215 l 694 1042 l 521 1042 z "},"ř":{"ha":1138,"x_min":174,"x_max":868,"o":"m 174 0 l 174 694 l 347 694 l 347 521 l 521 521 l 521 347 l 347 347 l 347 0 l 174 0 m 521 521 l 521 694 l 868 694 l 868 521 l 521 521 m 347 868 l 347 1042 l 521 1042 l 521 868 l 347 868 m 174 1042 l 174 1215 l 347 1215 l 347 1042 l 174 1042 m 521 1042 l 521 1215 l 694 1215 l 694 1042 l 521 1042 z "},"Ś":{"ha":1138,"x_min":0,"x_max":868,"o":"m 0 0 l 0 174 l 694 174 l 694 0 l 0 0 m 694 174 l 694 347 l 868 347 l 868 174 l 694 174 m 174 347 l 174 521 l 694 521 l 694 347 l 174 347 m 0 521 l 0 694 l 174 694 l 174 521 l 0 521 m 174 694 l 174 868 l 347 868 l 347 1042 l 521 1042 l 521 868 l 868 868 l 868 694 l 174 694 m 521 1042 l 521 1215 l 694 1215 l 694 1042 l 521 1042 z "},"ś":{"ha":964,"x_min":0,"x_max":694,"o":"m 0 0 l 0 174 l 521 174 l 521 0 l 0 0 m 521 174 l 521 347 l 694 347 l 694 174 l 521 174 m 174 347 l 174 521 l 521 521 l 521 347 l 174 347 m 0 521 l 0 694 l 174 694 l 174 521 l 0 521 m 174 694 l 174 868 l 347 868 l 347 1042 l 521 1042 l 521 868 l 694 868 l 694 694 l 174 694 m 521 1042 l 521 1215 l 694 1215 l 694 1042 l 521 1042 z "},"Š":{"ha":1138,"x_min":0,"x_max":868,"o":"m 0 0 l 0 174 l 694 174 l 694 0 l 0 0 m 694 174 l 694 347 l 868 347 l 868 174 l 694 174 m 174 347 l 174 521 l 694 521 l 694 347 l 174 347 m 0 521 l 0 694 l 174 694 l 174 521 l 0 521 m 174 694 l 174 868 l 347 868 l 347 1042 l 521 1042 l 521 868 l 868 868 l 868 694 l 174 694 m 174 1042 l 174 1215 l 347 1215 l 347 1042 l 174 1042 m 521 1042 l 521 1215 l 694 1215 l 694 1042 l 521 1042 z "},"š":{"ha":964,"x_min":0,"x_max":694,"o":"m 0 0 l 0 174 l 521 174 l 521 0 l 0 0 m 521 174 l 521 347 l 694 347 l 694 174 l 521 174 m 174 347 l 174 521 l 521 521 l 521 347 l 174 347 m 0 521 l 0 694 l 174 694 l 174 521 l 0 521 m 174 694 l 174 868 l 347 868 l 347 1042 l 521 1042 l 521 868 l 694 868 l 694 694 l 174 694 m 174 1042 l 174 1215 l 347 1215 l 347 1042 l 174 1042 m 521 1042 l 521 1215 l 694 1215 l 694 1042 l 521 1042 z "},"Ť":{"ha":1138,"x_min":0,"x_max":868,"o":"m 347 0 l 347 694 l 0 694 l 0 868 l 347 868 l 347 1042 l 521 1042 l 521 868 l 868 868 l 868 694 l 521 694 l 521 0 l 347 0 m 174 1042 l 174 1215 l 347 1215 l 347 1042 l 174 1042 m 521 1042 l 521 1215 l 694 1215 l 694 1042 l 521 1042 z "},"ť":{"ha":1138,"x_min":0,"x_max":868,"o":"m 347 0 l 347 174 l 521 174 l 521 0 l 347 0 m 521 174 l 521 347 l 694 347 l 694 174 l 521 174 m 174 174 l 174 694 l 0 694 l 0 868 l 174 868 l 174 1042 l 347 1042 l 347 868 l 521 868 l 521 694 l 347 694 l 347 174 l 174 174 m 694 868 l 694 1215 l 868 1215 l 868 868 l 694 868 z "},"Ů":{"ha":1138,"x_min":0,"x_max":868,"o":"m 174 0 l 174 174 l 694 174 l 694 0 l 174 0 m 0 174 l 0 694 l 174 694 l 174 174 l 0 174 m 694 174 l 694 694 l 868 694 l 868 174 l 694 174 m 521 868 l 521 1042 l 347 1042 l 347 868 l 521 868 m 174 694 l 174 1215 l 694 1215 l 694 694 l 174 694 z "},"ů":{"ha":1138,"x_min":0,"x_max":868,"o":"m 174 0 l 174 174 l 521 174 l 521 0 l 174 0 m 0 174 l 0 694 l 174 694 l 174 174 l 0 174 m 694 0 l 694 174 l 521 174 l 521 347 l 694 347 l 694 694 l 868 694 l 868 0 l 694 0 m 521 868 l 521 1042 l 347 1042 l 347 868 l 521 868 m 174 694 l 174 1215 l 694 1215 l 694 694 l 174 694 z "},"Ű":{"ha":1138,"x_min":0,"x_max":868,"o":"m 174 0 l 174 174 l 694 174 l 694 0 l 174 0 m 694 174 l 694 868 l 868 868 l 868 174 l 694 174 m 0 174 l 0 1042 l 174 1042 l 174 174 l 0 174 m 521 868 l 521 1042 l 694 1042 l 694 868 l 521 868 m 174 1042 l 174 1215 l 347 1215 l 347 1042 l 174 1042 m 694 1042 l 694 1215 l 868 1215 l 868 1042 l 694 1042 z "},"ű":{"ha":1138,"x_min":0,"x_max":868,"o":"m 174 0 l 174 174 l 521 174 l 521 0 l 174 0 m 0 174 l 0 694 l 174 694 l 174 174 l 0 174 m 694 0 l 694 174 l 521 174 l 521 347 l 694 347 l 694 694 l 868 694 l 868 0 l 694 0 m 0 868 l 0 1042 l 174 1042 l 174 868 l 0 868 m 521 868 l 521 1042 l 694 1042 l 694 868 l 521 868 m 174 1042 l 174 1215 l 347 1215 l 347 1042 l 174 1042 m 694 1042 l 694 1215 l 868 1215 l 868 1042 l 694 1042 z "},"Ÿ":{"ha":1138,"x_min":0,"x_max":868,"o":"m 347 0 l 347 521 l 521 521 l 521 0 l 347 0 m 174 521 l 174 694 l 347 694 l 347 521 l 174 521 m 521 521 l 521 694 l 694 694 l 694 521 l 521 521 m 0 694 l 0 868 l 174 868 l 174 694 l 0 694 m 694 694 l 694 868 l 868 868 l 868 694 l 694 694 m 174 1042 l 174 1215 l 347 1215 l 347 1042 l 174 1042 m 521 1042 l 521 1215 l 694 1215 l 694 1042 l 521 1042 z "},"Ź":{"ha":1138,"x_min":0,"x_max":868,"o":"m 0 0 l 0 174 l 174 174 l 174 347 l 347 347 l 347 174 l 868 174 l 868 0 l 0 0 m 347 347 l 347 521 l 521 521 l 521 347 l 347 347 m 521 521 l 521 694 l 0 694 l 0 868 l 347 868 l 347 1042 l 521 1042 l 521 868 l 868 868 l 868 694 l 694 694 l 694 521 l 521 521 m 521 1042 l 521 1215 l 694 1215 l 694 1042 l 521 1042 z "},"ź":{"ha":1138,"x_min":174,"x_max":868,"o":"m 174 0 l 174 174 l 347 174 l 347 347 l 521 347 l 521 174 l 868 174 l 868 0 l 174 0 m 521 347 l 521 521 l 174 521 l 174 694 l 868 694 l 868 521 l 694 521 l 694 347 l 521 347 m 347 868 l 347 1042 l 521 1042 l 521 868 l 347 868 m 521 1042 l 521 1215 l 694 1215 l 694 1042 l 521 1042 z "},"Ż":{"ha":1138,"x_min":0,"x_max":868,"o":"m 0 0 l 0 174 l 174 174 l 174 347 l 347 347 l 347 174 l 868 174 l 868 0 l 0 0 m 347 347 l 347 521 l 521 521 l 521 347 l 347 347 m 521 521 l 521 694 l 0 694 l 0 868 l 868 868 l 868 694 l 694 694 l 694 521 l 521 521 m 347 1042 l 347 1215 l 521 1215 l 521 1042 l 347 1042 z "},"ż":{"ha":1138,"x_min":174,"x_max":868,"o":"m 174 0 l 174 174 l 347 174 l 347 347 l 521 347 l 521 174 l 868 174 l 868 0 l 174 0 m 521 347 l 521 521 l 174 521 l 174 694 l 868 694 l 868 521 l 694 521 l 694 347 l 521 347 m 347 1042 l 347 1215 l 521 1215 l 521 1042 l 347 1042 z "},"Ž":{"ha":1138,"x_min":0,"x_max":868,"o":"m 0 0 l 0 174 l 174 174 l 174 347 l 347 347 l 347 174 l 868 174 l 868 0 l 0 0 m 347 347 l 347 521 l 521 521 l 521 347 l 347 347 m 521 521 l 521 694 l 0 694 l 0 868 l 347 868 l 347 1042 l 521 1042 l 521 868 l 868 868 l 868 694 l 694 694 l 694 521 l 521 521 m 174 1042 l 174 1215 l 347 1215 l 347 1042 l 174 1042 m 521 1042 l 521 1215 l 694 1215 l 694 1042 l 521 1042 z "},"ž":{"ha":1138,"x_min":174,"x_max":868,"o":"m 174 0 l 174 174 l 347 174 l 347 347 l 521 347 l 521 174 l 868 174 l 868 0 l 174 0 m 521 347 l 521 521 l 174 521 l 174 694 l 868 694 l 868 521 l 694 521 l 694 347 l 521 347 m 347 868 l 347 1042 l 521 1042 l 521 868 l 347 868 m 174 1042 l 174 1215 l 347 1215 l 347 1042 l 174 1042 m 521 1042 l 521 1215 l 694 1215 l 694 1042 l 521 1042 z "},"Ɗ":{"ha":444,"x_min":0,"x_max":174,"o":"m 0 -174 l 0 0 l 174 0 l 174 -174 l 0 -174 z "},"Ɵ":{"ha":1138,"x_min":0,"x_max":868,"o":"m 174 0 l 174 174 l 694 174 l 694 0 l 174 0 m 0 174 l 0 1042 l 174 1042 l 174 694 l 694 694 l 694 1042 l 868 1042 l 868 174 l 694 174 l 694 521 l 174 521 l 174 174 l 0 174 m 174 1042 l 174 1215 l 694 1215 l 694 1042 l 174 1042 z "},"Ʃ":{"ha":1138,"x_min":0,"x_max":868,"o":"m 0 0 l 0 347 l 174 347 l 174 174 l 694 174 l 694 347 l 868 347 l 868 0 l 0 0 m 174 347 l 174 521 l 347 521 l 347 347 l 174 347 m 347 521 l 347 694 l 521 694 l 521 521 l 347 521 m 174 694 l 174 868 l 347 868 l 347 694 l 174 694 m 0 868 l 0 1215 l 868 1215 l 868 868 l 694 868 l 694 1042 l 174 1042 l 174 868 l 0 868 z "},"Ǎ":{"ha":1138,"x_min":0,"x_max":868,"o":"m 0 0 l 0 694 l 174 694 l 174 521 l 694 521 l 694 694 l 868 694 l 868 0 l 694 0 l 694 347 l 174 347 l 174 0 l 0 0 m 174 694 l 174 1042 l 694 1042 l 694 694 l 174 694 m 0 1042 l 0 1215 l 174 1215 l 174 1042 l 0 1042 m 694 1042 l 694 1215 l 868 1215 l 868 1042 l 694 1042 z "},"Д":{"ha":1138,"x_min":0,"x_max":868,"o":"m 0 0 l 0 521 l 174 521 l 174 347 l 521 347 l 521 1042 l 347 1042 l 347 521 l 174 521 l 174 1042 l 0 1042 l 0 1215 l 868 1215 l 868 1042 l 694 1042 l 694 347 l 868 347 l 868 0 l 694 0 l 694 174 l 174 174 l 174 0 l 0 0 z "},"Ж":{"ha":1138,"x_min":0,"x_max":868,"o":"m 0 0 l 0 521 l 174 521 l 174 0 l 0 0 m 694 0 l 694 521 l 868 521 l 868 0 l 694 0 m 0 694 l 0 1215 l 174 1215 l 174 694 l 0 694 m 347 0 l 347 521 l 174 521 l 174 694 l 347 694 l 347 1215 l 521 1215 l 521 694 l 694 694 l 694 521 l 521 521 l 521 0 l 347 0 m 694 694 l 694 1215 l 868 1215 l 868 694 l 694 694 z "},"З":{"ha":1138,"x_min":0,"x_max":868,"o":"m 0 0 l 0 174 l 694 174 l 694 0 l 0 0 m 694 174 l 694 521 l 868 521 l 868 174 l 694 174 m 174 521 l 174 694 l 694 694 l 694 521 l 174 521 m 694 694 l 694 1042 l 868 1042 l 868 694 l 694 694 m 0 1042 l 0 1215 l 694 1215 l 694 1042 l 0 1042 z "},"И":{"ha":1138,"x_min":0,"x_max":868,"o":"m 347 521 l 347 694 l 521 694 l 521 521 l 347 521 m 0 0 l 0 1215 l 174 1215 l 174 521 l 347 521 l 347 347 l 174 347 l 174 0 l 0 0 m 694 0 l 694 694 l 521 694 l 521 868 l 694 868 l 694 1215 l 868 1215 l 868 0 l 694 0 z "},"ẞ":{"ha":1138,"x_min":0,"x_max":868,"o":"m 347 0 l 347 174 l 694 174 l 694 0 l 347 0 m 694 174 l 694 694 l 868 694 l 868 174 l 694 174 m 347 694 l 347 868 l 694 868 l 694 694 l 347 694 m 0 0 l 0 1042 l 174 1042 l 174 347 l 347 347 l 347 174 l 174 174 l 174 0 l 0 0 m 694 868 l 694 1042 l 868 1042 l 868 868 l 694 868 m 174 1042 l 174 1215 l 694 1215 l 694 1042 l 174 1042 z "},"‘":{"ha":1138,"x_min":174,"x_max":521,"o":"m 174 694 l 174 1042 l 347 1042 l 347 868 l 521 868 l 521 694 l 174 694 m 347 1042 l 347 1215 l 521 1215 l 521 1042 l 347 1042 z "},"’":{"ha":1138,"x_min":174,"x_max":521,"o":"m 174 694 l 174 868 l 347 868 l 347 694 l 174 694 m 347 868 l 347 1042 l 174 1042 l 174 1215 l 521 1215 l 521 868 l 347 868 z "},"“":{"ha":1138,"x_min":0,"x_max":868,"o":"m 0 694 l 0 1042 l 174 1042 l 174 868 l 347 868 l 347 694 l 0 694 m 521 694 l 521 1042 l 694 1042 l 694 868 l 868 868 l 868 694 l 521 694 m 174 1042 l 174 1215 l 347 1215 l 347 1042 l 174 1042 m 694 1042 l 694 1215 l 868 1215 l 868 1042 l 694 1042 z "},"”":{"ha":1138,"x_min":0,"x_max":868,"o":"m 0 694 l 0 868 l 174 868 l 174 694 l 0 694 m 521 694 l 521 868 l 694 868 l 694 694 l 521 694 m 174 868 l 174 1042 l 0 1042 l 0 1215 l 347 1215 l 347 868 l 174 868 m 694 868 l 694 1042 l 521 1042 l 521 1215 l 868 1215 l 868 868 l 694 868 z "},"†":{"ha":1138,"x_min":174,"x_max":694,"o":"m 347 0 l 347 694 l 174 694 l 174 868 l 347 868 l 347 1215 l 521 1215 l 521 868 l 694 868 l 694 694 l 521 694 l 521 0 l 347 0 z "},"•":{"ha":1138,"x_min":0,"x_max":868,"o":"m 174 174 l 174 347 l 0 347 l 0 868 l 174 868 l 174 1042 l 694 1042 l 694 868 l 868 868 l 868 347 l 694 347 l 694 174 l 174 174 z "},"…":{"ha":1138,"x_min":0,"x_max":868,"o":"m 0 0 l 0 174 l 174 174 l 174 0 l 0 0 m 347 0 l 347 174 l 521 174 l 521 0 l 347 0 m 694 0 l 694 174 l 868 174 l 868 0 l 694 0 z "},"‹":{"ha":1138,"x_min":174,"x_max":521,"o":"m 347 347 l 347 521 l 521 521 l 521 347 l 347 347 m 174 521 l 174 694 l 347 694 l 347 521 l 174 521 m 347 694 l 347 868 l 521 868 l 521 694 l 347 694 z "},"›":{"ha":1138,"x_min":174,"x_max":521,"o":"m 174 347 l 174 521 l 347 521 l 347 347 l 174 347 m 347 521 l 347 694 l 521 694 l 521 521 l 347 521 m 174 694 l 174 868 l 347 868 l 347 694 l 174 694 z "},"€":{"ha":1138,"x_min":0,"x_max":868,"o":"m 347 0 l 347 174 l 694 174 l 694 0 l 347 0 m 694 174 l 694 347 l 868 347 l 868 174 l 694 174 m 174 174 l 174 347 l 0 347 l 0 521 l 174 521 l 174 694 l 0 694 l 0 868 l 174 868 l 174 1042 l 347 1042 l 347 868 l 521 868 l 521 694 l 347 694 l 347 521 l 521 521 l 521 347 l 347 347 l 347 174 l 174 174 m 694 868 l 694 1042 l 868 1042 l 868 868 l 694 868 m 347 1042 l 347 1215 l 694 1215 l 694 1042 l 347 1042 z "},"™":{"ha":1138,"x_min":0,"x_max":868,"o":"m 174 694 l 174 1042 l 0 1042 l 0 1215 l 694 1215 l 694 1042 l 868 1042 l 868 694 l 521 694 l 521 1042 l 347 1042 l 347 694 l 174 694 z "}}}
